<?xml version="1.0" encoding="UTF-8"?>
<svg width="116px" height="23px" viewBox="0 0 116 23" version="1.1" xmlns="http://www.w3.org/2000/svg" xmlns:xlink="http://www.w3.org/1999/xlink">
    <!-- Generator: sketchtool 51.2 (57519) - http://www.bohemiancoding.com/sketch -->
    <title>B8F5E649-8993-4EE8-8305-32AAAFFCF8F9</title>
    <desc>Created with sketchtool.</desc>
    <defs></defs>
    <g id="Landing-page" stroke="none" stroke-width="1" fill="none" fill-rule="evenodd">
        <g id="Landing-Page" transform="translate(-138.000000, -4124.000000)" fill="#4A4A4A">
            <g id="Group" transform="translate(138.000000, 4124.000000)">
                <g id="Logo/Bolt">
                    <path d="M0.431562459,14.0201621 C0.154112285,14.0201621 0.0474525858,13.8313031 0.193708465,13.5977316 L8.50302135,0.327707675 C8.64910839,0.0944057695 8.76753534,0.12957598 8.76753534,0.40605199 L8.76753534,8.97913176 L14.1573946,8.97913176 C14.4348448,8.97913176 14.5415045,9.16799069 14.3952486,9.40156223 L6.0859357,22.6715862 C5.93984866,22.9048881 5.82142172,22.8697179 5.82142172,22.5932418 L5.82142172,14.0201621 L0.431562459,14.0201621 Z" id="_Path_"></path>
                </g>
                <path d="M28.0643915,12.0935252 L28.0643915,6.46249747 L30.8203156,6.46249747 L30.8203156,17.0235012 L28.0643915,17.0235012 L28.0643915,15.5309397 C27.4770635,16.6616681 26.2120491,17.2496469 25.1503407,17.2496469 C22.6654911,17.2496469 20.993865,15.6892417 20.993865,12.7041185 L20.993865,6.46249747 L23.7723786,6.46249747 L23.7723786,12.206598 C23.7723786,13.9253053 24.8114976,14.5585132 25.7828478,14.5585132 C26.9349145,14.5585132 28.0643915,13.9253053 28.0643915,12.0935252 Z M32.742309,11.7090775 C32.742309,8.38473584 35.4078749,6.23635178 38.4348734,6.23635178 C40.1968577,6.23635178 41.8233047,6.98263256 42.8172445,8.29427756 L40.626059,9.94514111 C40.1290891,9.26670403 39.293276,8.90487093 38.4348734,8.90487093 C36.8987846,8.90487093 35.4756435,9.99037024 35.4756435,11.7090775 C35.4756435,13.4277847 36.8987846,14.6037423 38.4348734,14.6037423 C39.293276,14.6037423 40.1290891,14.2192947 40.626059,13.5408576 L42.839834,15.1691066 C41.8458942,16.4807516 40.2194472,17.2496469 38.4348734,17.2496469 C35.4078749,17.2496469 32.742309,15.0334191 32.742309,11.7090775 Z M47.760632,13.2920973 L47.760632,17.0235012 L45.0047079,17.0235012 L45.0047079,6.46249747 L47.760632,6.46249747 L47.760632,8.95010007 C48.302781,7.02786169 49.5452058,6.23635178 50.7424515,6.23635178 C51.4879063,6.23635178 52.0526449,6.39465376 52.4818462,6.62079945 L52.0074658,9.10840205 C51.3523691,8.81441265 50.6746829,8.81441265 50.4036084,8.81441265 C48.5286764,8.81441265 47.760632,10.4878908 47.760632,13.2920973 Z M63.7107307,11.7090775 C63.7107307,11.9804523 63.6881411,12.4101291 63.6655516,12.6588894 L55.6236748,12.6588894 C55.8043911,14.0609927 56.9790473,14.9203463 58.5377256,14.9203463 C59.5994341,14.9203463 60.6837321,14.4680549 61.180702,13.5634722 C61.8357987,13.9253053 62.6038431,14.3323675 63.2815294,14.6942006 C62.3327686,16.5033661 60.2997099,17.2496469 58.3570093,17.2496469 C55.3526003,17.2496469 52.8903403,15.0334191 52.8903403,11.7090775 C52.8903403,8.38473584 55.3526003,6.23635178 58.3570093,6.23635178 C61.3614183,6.23635178 63.7107307,8.38473584 63.7107307,11.7090775 Z M55.6010852,10.7818802 L61.0225752,10.7818802 C60.8192693,9.33454774 59.7349713,8.54303782 58.3795989,8.54303782 C56.9338682,8.54303782 55.8043911,9.35716231 55.6010852,10.7818802 Z M73.8723022,17.0235012 L73.8723022,15.6666271 C73.194616,16.7521264 71.6359376,17.2270324 70.5968187,17.2270324 C67.8183051,17.2270324 65.2205078,15.1012629 65.2205078,11.7316921 C65.2205078,8.3395067 67.8183051,6.23635178 70.5968187,6.23635178 C71.5455795,6.23635178 73.1042578,6.59818488 73.8723022,7.77414247 L73.8723022,6.46249747 L76.6282263,6.46249747 L76.6282263,17.0235012 L73.8723022,17.0235012 Z M68.0667901,11.7316921 C68.0667901,13.4277847 69.4673416,14.5811278 70.9808409,14.5811278 C72.4717507,14.5811278 73.8723022,13.5408576 73.8723022,11.7316921 C73.8723022,9.89991197 72.4265716,8.88225636 70.9808409,8.88225636 C69.4673416,8.88225636 68.0667901,10.0129848 68.0667901,11.7316921 Z M83.1980608,2.43710417 L83.1980608,6.46249747 L85.4344254,6.46249747 L85.4344254,8.67872524 L83.1980608,8.67872524 L83.1980608,17.0235012 L80.4647263,17.0235012 L80.4647263,8.67872524 L78.5446152,8.67872524 L78.5446152,6.46249747 L80.4647263,6.46249747 L80.4647263,2.43710417 L83.1980608,2.43710417 Z M97.3805708,11.7090775 C97.3805708,11.9804523 97.3579812,12.4101291 97.3353917,12.6588894 L89.2935149,12.6588894 C89.4742312,14.0609927 90.6488874,14.9203463 92.2075658,14.9203463 C93.2692742,14.9203463 94.3535722,14.4680549 94.8505421,13.5634722 C95.5056388,13.9253053 96.2736832,14.3323675 96.9513695,14.6942006 C96.0026087,16.5033661 93.96955,17.2496469 92.0268494,17.2496469 C89.0224404,17.2496469 86.5601804,15.0334191 86.5601804,11.7090775 C86.5601804,8.38473584 89.0224404,6.23635178 92.0268494,6.23635178 C95.0312585,6.23635178 97.3805708,8.38473584 97.3805708,11.7090775 Z M89.2709254,10.7818802 L94.6924153,10.7818802 C94.4891095,9.33454774 93.4048115,8.54303782 92.049439,8.54303782 C90.6037083,8.54303782 89.4742312,9.35716231 89.2709254,10.7818802 Z M98.9185419,15.5309397 C98.9185419,14.5358986 99.7317654,13.8122324 100.680526,13.8122324 C101.674466,13.8122324 102.487689,14.5358986 102.487689,15.5309397 C102.487689,16.5259807 101.674466,17.2496469 100.680526,17.2496469 C99.7317654,17.2496469 98.9185419,16.5259807 98.9185419,15.5309397 Z M107.549629,6.46249747 L107.549629,17.0235012 L104.816295,17.0235012 L104.816295,6.46249747 L107.549629,6.46249747 Z M104.409683,2.36926046 C104.409683,1.44206313 105.222906,0.71839692 106.194257,0.71839692 C107.143017,0.71839692 107.933651,1.44206313 107.933651,2.36926046 C107.933651,3.31907236 107.143017,4.04273857 106.194257,4.04273857 C105.222906,4.04273857 104.409683,3.31907236 104.409683,2.36926046 Z M113.763635,2.43710417 L113.763635,6.46249747 L116,6.46249747 L116,8.67872524 L113.763635,8.67872524 L113.763635,17.0235012 L111.030301,17.0235012 L111.030301,8.67872524 L109.11019,8.67872524 L109.11019,6.46249747 L111.030301,6.46249747 L111.030301,2.43710417 L113.763635,2.43710417 Z" id="ucreate.it"></path>
            </g>
        </g>
    </g>
</svg>