<?xml version="1.0" encoding="UTF-8"?>
<svg width="354px" height="422px" viewBox="0 0 354 422" version="1.1" xmlns="http://www.w3.org/2000/svg" xmlns:xlink="http://www.w3.org/1999/xlink">
    <!-- Generator: sketchtool 51.2 (57519) - http://www.bohemiancoding.com/sketch -->
    <title>4A6C3984-7BB0-46E1-AA89-B879A61BAFF0</title>
    <desc>Created with sketchtool.</desc>
    <defs>
        <linearGradient x1="22.3901201%" y1="3.79616659%" x2="-14.9830018%" y2="112.200484%" id="linearGradient-1">
            <stop stop-color="#9190FF" stop-opacity="0.0111526268" offset="0%"></stop>
            <stop stop-color="#5857FF" offset="100%"></stop>
        </linearGradient>
        <linearGradient x1="21.8040103%" y1="2.54166072%" x2="-52.5132354%" y2="90.9853391%" id="linearGradient-2">
            <stop stop-color="#9190FF" stop-opacity="0.270748415" offset="0%"></stop>
            <stop stop-color="#5857FF" offset="100%"></stop>
        </linearGradient>
        <polygon id="path-3" points="0 64.7716678 82.800661 74.4185119 27.6002203 0"></polygon>
        <linearGradient x1="0%" y1="50%" x2="100%" y2="50%" id="linearGradient-5">
            <stop stop-color="#FFFFFF" offset="0%"></stop>
            <stop stop-color="#E4E4E4" offset="100%"></stop>
        </linearGradient>
    </defs>
    <g id="Landing-page" stroke="none" stroke-width="1" fill="none" fill-rule="evenodd">
        <g id="Landing-Page" transform="translate(-825.000000, -3424.000000)">
            <g id="Group-35" transform="translate(825.000000, 3424.000000)">
                <g id="Group">
                    <g id="Group-59" transform="translate(64.762376, 0.000000)">
                        <polygon id="Fill-51" fill="url(#linearGradient-1)" points="255.364154 268.366983 54.4017954 234.37706 54.4017954 57.2133508 200.993441 36.6141098 254.014241 30.4333692 255.364154 92.2698254 255.364154 154.933516"></polygon>
                        <polygon id="Fill-53" fill="url(#linearGradient-2)" points="241.504681 290.500342 39.1563752 249.987995 39.1563752 38.8357458 186.758377 14.2829335 240.147838 6.91667482 241.504681 80.6166117"></polygon>
                        <path d="M0.0655929835,5.66904502 C0.625515692,5.66904502 1.18266651,5.6842617 1.73565948,5.7119284 L1.73565948,5.62754497 C1.18266651,5.65521167 0.625515692,5.66904502 0.0655929835,5.66904502" id="Fill-55" fill="#FFD525"></path>
                        <polygon id="Fill-57" fill="#EAEAEA" points="226.259261 311.250367 19.753113 265.600313 19.753113 27.6666993 170.387567 0 170.821369 0 226.259261 74.7485048"></polygon>
                    </g>
                    <g id="Group-62" transform="translate(207.866337, 0.000000)">
                        <mask id="mask-4" fill="white">
                            <use xlink:href="#path-3"></use>
                        </mask>
                        <g id="Clip-61"></g>
                        <polygon id="Fill-60" fill="url(#linearGradient-5)" mask="url(#mask-4)" points="0 64.7716678 82.800661 74.4185119 27.6002203 0"></polygon>
                    </g>
                    <g id="Group-99" transform="translate(0.000000, 34.470297)">
                        <path d="M316.846034,303.754711 C316.846034,349.762318 279.516314,387.059694 233.465717,387.059694 C187.415121,387.059694 150.085401,349.762318 150.085401,303.754711 C150.085401,257.747105 187.415121,220.449729 233.465717,220.449729 C279.516314,220.449729 316.846034,257.747105 316.846034,303.754711" id="Fill-63" fill="#F7F7F9"></path>
                        <path d="M226.541317,343.971348 C214.649214,332.196431 218.081943,296.23303 218.081943,296.23303 C218.081943,296.23303 257.329343,289.169186 269.221447,300.945486 C281.112166,312.720403 281.199334,331.897842 269.413768,343.777818 C257.628202,355.660559 238.434804,355.746265 226.541317,343.971348" id="Fill-65" fill="#EABFA2"></path>
                        <path d="M284.009716,289.345989 C279.355262,284.738593 276.83433,276.198392 270.758911,276.226039 C264.161872,276.255068 260.838448,272.963676 259.193339,271.33526 C254.619134,266.806658 247.237589,266.839834 242.703509,271.409907 C240.491121,273.642413 240.258675,274.840917 237.780635,276.373951 C231.198816,280.444992 223.777147,277.251748 218.022725,283.0535 C210.769856,290.364787 210.822433,302.165969 218.141715,309.412284 C223.483822,314.702564 228.103686,309.983198 234.645381,312.633176 C237.33788,313.723856 239.088143,317.031836 241.270092,319.19246 C244.583831,322.472793 247.867131,319.163431 251.178103,322.443764 C254.385304,325.617656 247.77858,332.197675 251.237598,335.623156 C258.556879,342.869471 270.370117,342.81556 277.621602,335.504273 C282.597053,330.489082 281.144266,323.577297 282.161217,317.060866 C284.036005,305.073065 292.942284,298.191692 284.009716,289.345989" id="Fill-67" fill="#0C0C92"></path>
                        <path d="M182.419884,277.07688 C196.139733,277.07688 207.26255,265.964111 207.26255,252.256659 C207.26255,238.547824 196.139733,227.435056 182.419884,227.435056 L157.458228,227.435056 C143.736996,227.435056 132.614178,238.547824 132.614178,252.256659 C132.614178,265.964111 143.736996,277.07688 157.458228,277.07688 L182.419884,277.07688 Z" id="Fill-69" fill="#4057FF"></path>
                        <polygon id="Fill-71" fill="#4057FF" points="179.539214 273.695911 196.412303 270.78052 196.076087 290.217842"></polygon>
                        <polyline id="Stroke-73" stroke="#F3F5FF" stroke-width="2" points="154.84916 251.340571 164.379446 260.912011 183.437251 243.456989"></polyline>
                        <path d="M0,188.317808 C0,228.848516 32.886958,261.70576 73.4543193,261.70576 C114.021681,261.70576 146.908639,228.848516 146.908639,188.317808 C146.908639,147.7871 114.021681,114.929855 73.4543193,114.929855 C32.886958,114.929855 0,147.7871 0,188.317808" id="Fill-75" fill="#F7F7F9"></path>
                        <path d="M129.661837,162.036851 C115.940605,162.036851 104.819171,150.924082 104.819171,137.215248 C104.819171,123.507795 115.940605,112.395027 129.661837,112.395027 L154.623494,112.395027 C168.344726,112.395027 179.46616,123.507795 179.46616,137.215248 C179.46616,150.924082 168.344726,162.036851 154.623494,162.036851 L129.661837,162.036851 Z" id="Fill-77" fill="#FFD525"></path>
                        <polygon id="Fill-79" fill="#FFD525" points="132.542507 158.655191 115.668035 155.7398 116.005635 175.177122"></polygon>
                        <path d="M44.7902686,202.986413 C44.7902686,190.264581 55.1119778,179.950815 67.8453143,179.950815 C78.5322958,179.950815 88.2867262,170.095992 90.9017436,179.950815 C91.4012258,181.839115 90.9017436,200.941907 90.9017436,202.986413 C90.9017436,215.708245 80.5786508,226.022011 67.8453143,226.022011 C55.1119778,226.022011 44.7902686,215.708245 44.7902686,202.986413" id="Fill-81" fill="#DFB494"></path>
                        <path d="M12.710507,215.592403 C-1.17537426,222.768219 -1.52127605,250.108476 13.9225468,262.28013 C23.3130885,269.681269 36.6510613,270.684861 47.0433345,264.771137 C64.090758,255.07252 67.0710478,238.637677 58.976946,222.475159 C55.4307609,215.390579 52.9416517,210.04224 55.4307609,204.758871 C56.0547677,203.433191 61.0606584,200.607653 62.2173539,199.613738 C66.8994805,195.586932 64.478168,186.842142 69.5822947,184.250222 C76.927865,180.520623 86.1260853,187.782144 91.5622777,180.271799 C94.9521152,175.588373 95.452981,169.168707 92.8172094,164.022192 C88.6746896,155.929874 81.034411,153.176218 73.1658372,151.600331 C64.9319911,149.951179 56.7866959,149.918003 50.3404703,155.459872 C48.1073283,157.378584 47.844443,160.667211 45.7109208,162.397922 C42.5645982,164.952518 37.6956846,162.232039 37.6956846,169.319384 C37.6956846,176.39014 27.0543622,169.319384 27.1484474,185.23999 C27.1608999,187.641144 16.4130397,187.038436 16.4130397,197.670144 C16.4130397,204.608194 19.9592248,211.846216 12.710507,215.592403" id="Fill-83" fill="#4E1A9F"></path>
                        <path d="M124.673242,129.210571 L161.201854,129.210571" id="Stroke-85" stroke="#274ACC" stroke-width="2"></path>
                        <path d="M124.673242,137.144194 L161.201854,137.144194" id="Stroke-87" stroke="#274ACC" stroke-width="2"></path>
                        <path d="M124.673242,145.077956 L146.115002,145.077956" id="Stroke-89" stroke="#274ACC" stroke-width="2"></path>
                        <polygon id="Stroke-91" stroke="#4057FF" points="196.472213 37.32364 102.386928 44.2354251 102.386928 16.5882844 196.472213 0"></polygon>
                        <polygon id="Fill-93" fill="#D6D6D6" points="196.472213 105.966376 103.078732 102.294835 103.078732 53.3939552 196.472213 47.0005539"></polygon>
                        <path d="M279.488642,72.2693494 L279.488642,73.1291754 C279.488642,87.1365993 268.122309,98.4926623 254.100834,98.4926623 C268.122309,98.4926623 279.488642,109.848725 279.488642,123.856149 L279.488642,122.997705 C279.488642,108.988899 290.854974,97.6328362 304.876449,97.6328362 C290.854974,97.6328362 279.488642,86.2767732 279.488642,72.2693494" id="Fill-95" fill="#009CFF"></path>
                        <path d="M287.790284,138.790582 L287.790284,139.299289 C287.790284,147.58099 281.070105,154.295098 272.779531,154.295098 C281.070105,154.295098 287.790284,161.009206 287.790284,169.29229 L287.790284,168.783582 C287.790284,160.501881 294.510464,153.787773 302.801038,153.787773 C294.510464,153.787773 287.790284,147.073665 287.790284,138.790582" id="Fill-97" fill="#4057FF"></path>
                    </g>
                </g>
                <path d="M185.930693,369.25 C185.930693,372.999176 182.890649,376.039604 179.140233,376.039604 C175.39153,376.039604 172.351485,372.999176 172.351485,369.25 C172.351485,365.500824 175.39153,362.460396 179.140233,362.460396 C182.890649,362.460396 185.930693,365.500824 185.930693,369.25" id="Fill-34" fill="#FFFFFF"></path>
                <path d="M125.346535,254.34901 C125.346535,258.098186 122.30649,261.138614 118.556075,261.138614 C114.807371,261.138614 111.767327,258.098186 111.767327,254.34901 C111.767327,250.599834 114.807371,247.559406 118.556075,247.559406 C122.30649,247.559406 125.346535,250.599834 125.346535,254.34901" id="Fill-34" fill="#FFFFFF"></path>
                <path d="M327.526857,12.5346535 L327.526857,12.802392 C327.526857,17.1611462 323.993145,20.6948584 319.633663,20.6948584 C323.993145,20.6948584 327.526857,24.2285705 327.526857,28.5880523 L327.526857,28.3203138 C327.526857,23.9615595 331.060569,20.4278474 335.420051,20.4278474 C331.060569,20.4278474 327.526857,16.8941353 327.526857,12.5346535" id="Fill-20" fill="#4057FF"></path>
                <path d="M331.64672,57.450495 L331.64672,58.0770441 C331.64672,68.2877284 323.461596,76.5650613 313.366337,76.5650613 C323.461596,76.5650613 331.64672,84.8437712 331.64672,95.0544554 L331.64672,94.4279064 C331.64672,84.2158451 339.830483,75.9385122 349.925743,75.9385122 C339.830483,75.9385122 331.64672,67.6611793 331.64672,57.450495" id="Fill-12" fill="#FFD525"></path>
                <path d="M345.747525,88.7871287 L345.747525,89.0652086 C345.747525,93.6040614 342.005756,97.2832728 337.391089,97.2832728 C342.005756,97.2832728 345.747525,100.961147 345.747525,105.5 L345.747525,105.22192 C345.747525,100.683067 349.489294,97.0038559 354.10396,97.0038559 C349.489294,97.0038559 345.747525,93.3259814 345.747525,88.7871287" id="Fill-14" fill="#FFD525"></path>
                <path d="M332.168317,76.7747525 C332.168317,78.7935396 330.53137,80.4306931 328.511915,80.4306931 C326.493383,80.4306931 324.856436,78.7935396 324.856436,76.7747525 C324.856436,74.7559653 326.493383,73.1188119 328.511915,73.1188119 C330.53137,73.1188119 332.168317,74.7559653 332.168317,76.7747525" id="Fill-34" fill="#FFE161"></path>
                <path d="M278.89604,95.0544554 L278.89604,96.2209371 C278.89604,115.224086 263.463401,130.630271 244.425743,130.630271 C263.463401,130.630271 278.89604,146.036455 278.89604,165.039604 L278.89604,163.874998 C278.89604,144.869973 294.328678,129.463789 313.366337,129.463789 C294.328678,129.463789 278.89604,114.057604 278.89604,95.0544554" id="Fill-19" fill="#009CFF"></path>
                <path d="M275.240099,135.792079 C271.490276,135.792079 268.450495,132.752298 268.450495,129.002475 C268.450495,125.252652 271.490276,122.212871 275.240099,122.212871 C278.989922,122.212871 282.029703,125.252652 282.029703,129.002475 C282.029703,132.752298 278.989922,135.792079 275.240099,135.792079 Z" id="Fill-7" fill="#49A8FB"></path>
            </g>
        </g>
    </g>
</svg>