<?xml version="1.0" encoding="UTF-8"?>
<svg width="26px" height="40px" viewBox="0 0 26 40" version="1.1" xmlns="http://www.w3.org/2000/svg" xmlns:xlink="http://www.w3.org/1999/xlink">
    <!-- Generator: sketchtool 51.2 (57519) - http://www.bohemiancoding.com/sketch -->
    <title>E4C4F103-7610-47EE-B68F-2AAA0D54F638</title>
    <desc>Created with sketchtool.</desc>
    <defs></defs>
    <g id="Landing-page" stroke="none" stroke-width="1" fill="none" fill-rule="evenodd">
        <g id="Landing-Page" transform="translate(-121.000000, -67.000000)">
            <g id="logo" transform="translate(121.000000, 67.000000)">
                <path d="M17.2949002,16.740133 L12.9275012,16.740133 L12.9275012,13.5698448 C5.76374387,13.5698448 0.0873479809,19.2222616 0.0873479809,26.4962306 C0.0873479809,33.6944568 5.6436404,39.7874058 12.7043271,39.9084701 C8.03164685,39.7882927 4.28005106,35.9043902 4.28005106,31.1308204 C4.28005106,26.2815078 7.80227105,22.3277162 12.5781093,22.3277162 L12.9275012,22.3277162 L17.2949002,22.3277162 L17.2949002,16.740133 Z" id="Fill-53" fill="#FF5E99"></path>
                <path d="M0.016,26.4301552 C0.0055,26.5963 0,26.7630319 0,26.9301552 C0,26.7630319 0.009,26.5966914 0.016,26.4301552" id="Fill-54" fill="#6D6FE8"></path>
                <path d="M25.9395552,26.6518847 C25.9395552,19.3779157 20.1322247,13.481153 12.96838,13.481153 C5.8792179,13.481153 0.119229994,19.2559645 0,26.4252772 C0.118443862,21.6807095 3.94341195,17.8713969 8.64465498,17.8713969 C13.2147013,17.8713969 17.1131291,21.4628825 17.2702681,26.03051 C17.3068669,27.0942794 17.2702681,30.2882483 17.2702681,30.2882483 L21.9870591,30.2882483 L21.9870591,26.6518847 L25.9395552,26.6518847 Z" id="Fill-55" fill="#5857FF"></path>
                <path d="M13.4275012,13.5858448 C13.2612257,13.5753448 13.0947547,13.5698448 12.9275012,13.5698448 C13.0947547,13.5698448 13.2608345,13.5788448 13.4275012,13.5858448" id="Fill-56" fill="#999999"></path>
                <path d="M13.1944366,13.481153 C17.8671168,13.6013304 21.6186253,17.4852328 21.6186253,22.2588027 C21.6186253,26.8088692 18.2265538,30.7723282 13.8443929,30.9949446 C11.9579386,31.0907317 6.28905463,30.9949446 6.28905463,30.9949446 L6.28905463,36.5825277 L12.9711752,36.5825277 L12.9711752,39.8197783 C20.1350198,39.8197783 25.9423503,33.9230155 25.9423503,26.6490466 C25.9423503,19.4508204 20.2551233,13.602306 13.1944366,13.481153" id="Fill-57" fill="#9D5FFF"></path>
                <polygon id="Fill-58" fill="#FF5E99" points="0 27.3370288 8.64745011 27.3370288 8.64745011 0 0 0"></polygon>
                <path d="M25.6403884,29.6230599 C25.8381442,28.7089135 25.9423503,27.7592905 25.9423503,26.7849224 C25.9423503,31.634235 22.0707384,35.5654102 17.2949002,35.5654102 C12.519062,35.5654102 8.64745011,31.634235 8.64745011,26.7849224 L0,26.7849224 C0,34.0588914 5.80741786,39.9556541 12.9711752,39.9556541 C19.1753276,39.9556541 24.362138,35.5328603 25.6403884,29.6230599" id="Fill-59" fill="#FF5E99"></path>
            </g>
        </g>
    </g>
</svg>