<?xml version="1.0" encoding="UTF-8"?>
<svg width="142px" height="113px" viewBox="0 0 142 113" version="1.1" xmlns="http://www.w3.org/2000/svg" xmlns:xlink="http://www.w3.org/1999/xlink">
    <!-- Generator: sketchtool 51.2 (57519) - http://www.bohemiancoding.com/sketch -->
    <title>A20077EB-93E2-4F51-8646-D002C829391D</title>
    <desc>Created with sketchtool.</desc>
    <defs>
        <polygon id="path-1" points="0.753596821 0.300051451 54.3982757 0.300051451 54.3982757 35.3980568 0.753596821 35.3980568"></polygon>
    </defs>
    <g id="Landing-page" stroke="none" stroke-width="1" fill="none" fill-rule="evenodd">
        <g id="Landing-Page" transform="translate(-213.000000, -1073.000000)">
            <g id="Group-22" transform="translate(213.000000, 1073.000000)">
                <g id="Group-38" transform="translate(26.331126, 0.000000)">
                    <polygon id="Fill-17" fill="#F8F8F8" points="115.668874 0 115.668874 94.0397351 0 94.0397351 4.01307023e-16 0"></polygon>
                    <polygon id="Fill-125" fill="#E5E5E5" points="105.15153 10.3443709 106.264901 42.3178808 7.52317881 42.3178808 7.52317881 10.3443709"></polygon>
                    <polygon id="Fill-125" fill="#CBCBCB" points="99.3914916 25.3907285 99.6821192 42.3178808 85.5761589 42.3178808 85.5761589 25.3907285"></polygon>
                    <polygon id="Fill-125" fill="#CBCBCB" points="32.9139073 18.807947 32.9139073 42.3178808 18.807947 42.3178808 18.807947 18.807947"></polygon>
                    <polygon id="Fill-125" fill="#CBCBCB" points="56.4238411 28.2119205 56.4238411 42.3178808 42.3178808 42.3178808 42.3178808 28.2119205"></polygon>
                    <polygon id="Fill-125" fill="#CBCBCB" points="78.0529801 28.2119205 78.0529801 42.3178808 63.9470199 42.3178808 63.9470199 28.2119205"></polygon>
                    <polygon id="Fill-126" fill="#E5E5E5" points="107.499172 48.9006623 109.086093 80.3475497 7.52317881 84.6357616 7.52317881 51.7594702"></polygon>
                </g>
                <polyline id="Path-4" stroke="#CBCBCB" stroke-width="2" points="46.0794702 61.1258278 61.6031491 76.6495067 76.8331717 61.4194841 90.5670732 75.1533856 125.072848 54.5430464"></polyline>
                <g id="Group-21" transform="translate(0.000000, 24.450331)">
                    <g id="Group-20">
                        <g id="Group-7">
                            <g id="Group-4" transform="translate(39.713704, 44.848656)">
                                <path d="M35.6191184,34.6776645 C45.4310243,34.6776645 53.3856342,26.9147577 53.3856342,17.3393151 C53.3856342,7.76290677 45.4310243,0 35.6191184,0 L17.7675053,0 C7.95460991,0 0,7.76290677 0,17.3393151 C0,26.9147577 7.95460991,34.6776645 17.7675053,34.6776645 L35.6191184,34.6776645 Z" id="Fill-7" fill="#FF5E99"></path>
                                <polygon id="Fill-9" fill="#FF5E99" points="33.1638031 31.8952405 45.2969018 29.8389206 45.0551352 43.548695"></polygon>
                                <polyline id="Stroke-11" stroke="#F3F5FF" stroke-width="2" points="16.1774649 16.7539639 22.9187278 23.3872621 36.3992961 11.2904024"></polyline>
                            </g>
                            <g id="Group-5">
                                <g id="Group-17">
                                    <mask id="mask-2" fill="white">
                                        <use xlink:href="#path-1"></use>
                                    </mask>
                                    <g id="Clip-16"></g>
                                    <path d="M18.6066525,35.3980568 C8.74595894,35.3980568 0.753596821,27.5410092 0.753596821,17.8484677 C0.753596821,8.15690357 8.74595894,0.299855977 18.6066525,0.299855977 L36.54522,0.299855977 C46.4059136,0.299855977 54.3982757,8.15690357 54.3982757,17.8484677 C54.3982757,27.5410092 46.4059136,35.3980568 36.54522,35.3980568 L18.6066525,35.3980568 Z" id="Fill-15" fill="#FFD525" mask="url(#mask-2)"></path>
                                </g>
                                <polygon id="Fill-18" fill="#FFD525" points="20.4058667 32.5863323 8.1623467 30.5372667 8.40729741 44.1986755"></polygon>
                                <path d="M14.6922241,12.0541842 L40.8117335,12.0541842" id="Stroke-24" stroke="#274ACC" stroke-width="2"></path>
                                <path d="M14.6922241,17.6794702 L40.8117335,17.6794702" id="Stroke-26" stroke="#274ACC" stroke-width="2"></path>
                                <path d="M14.6922241,23.3047562 L31.0169175,23.3047562" id="Stroke-28" stroke="#274ACC" stroke-width="2"></path>
                            </g>
                        </g>
                        <path d="M46.875191,24.6992598 C46.875191,26.8527505 45.1261608,28.599143 42.9684327,28.599143 C40.8116894,28.599143 39.0626592,26.8527505 39.0626592,24.6992598 C39.0626592,22.5457692 40.8116894,20.7993767 42.9684327,20.7993767 C45.1261608,20.7993767 46.875191,22.5457692 46.875191,24.6992598" id="Fill-34" fill="#FFE161"></path>
                        <path d="M54.0366786,57.1982859 C54.0366786,59.3517766 52.2876484,61.0981691 50.1299202,61.0981691 C47.9731769,61.0981691 46.2241467,59.3517766 46.2241467,57.1982859 C46.2241467,55.0447953 47.9731769,53.2984028 50.1299202,53.2984028 C52.2876484,53.2984028 54.0366786,55.0447953 54.0366786,57.1982859" id="Fill-34" fill="#FF8BB6"></path>
                    </g>
                </g>
            </g>
        </g>
    </g>
</svg>