<?xml version="1.0" encoding="UTF-8"?>
<svg width="219px" height="219px" viewBox="0 0 219 219" version="1.1" xmlns="http://www.w3.org/2000/svg" xmlns:xlink="http://www.w3.org/1999/xlink">
    <!-- Generator: sketchtool 51.2 (57519) - http://www.bohemiancoding.com/sketch -->
    <title>40442D7B-034D-42EC-970D-66F39ED10580</title>
    <desc>Created with sketchtool.</desc>
    <defs></defs>
    <g id="Landing-page" stroke="none" stroke-width="1" fill="none" fill-rule="evenodd">
        <g id="Landing-Page" transform="translate(-540.000000, -1020.000000)">
            <g id="Group-31" transform="translate(540.000000, 1020.000000)">
                <rect id="Rectangle" fill="#FFFFFF" x="0" y="0" width="219" height="219"></rect>
                <g id="dollar" transform="translate(140.000000, 129.000000)" fill-rule="nonzero">
                    <path d="M14.0546875,0 C6.36026563,0 0,6.25078125 0,13.9453125 C0,21.6398438 6.36026563,28 14.0546875,28 C21.7491094,28 28,21.6398438 28,13.9453125 C28,6.25078125 21.7491094,0 14.0546875,0 Z" id="Shape" fill="#FEDB41"></path>
                    <path d="M28,13.9453125 C28,21.6398438 21.7245961,28 14,28 L14,0 C21.7245961,0 28,6.25078125 28,13.9453125 Z" id="Shape" fill="#FEDB41"></path>
                    <path d="M13.5535714,3 C7.79989286,3 3,7.69280357 3,13.4464286 C3,19.2000536 7.79989286,24 13.5535714,24 C19.30725,24 24,19.2000536 24,13.4464286 C24,7.69280357 19.30725,3 13.5535714,3 Z" id="Shape" fill="#FEA832"></path>
                    <path d="M25,13.4464286 C25,19.2000536 20.0585744,24 14,24 L14,3 C20.0585744,3 25,7.69280357 25,13.4464286 Z" id="Shape" fill="#FEA832"></path>
                    <path d="M15.6315789,13.6176471 L14.8421053,13.6176471 L14.8421053,10.3088235 L15.6315789,10.3088235 C16.0737368,10.3088235 16.4210526,10.672739 16.4210526,11.1360294 C16.4210526,12.227886 18,12.227886 18,11.1360294 C18,9.7628125 16.9422105,8.65441176 15.6315789,8.65441176 L14.8421053,8.65441176 L14.8421053,7.82720588 C14.8421053,7.28119485 14.4473684,7 14.0526316,7 C13.6578947,7 13.2631579,7.28119485 13.2631579,7.82720588 L13.2631579,8.65441176 L12.3684211,8.65441176 C11.0577895,8.65441176 10,9.7628125 10,11.1360294 L10,12.7904412 C10,14.1636581 11.0577895,15.2720588 12.3684211,15.2720588 L13.2631579,15.2720588 L13.2631579,18.6911765 L12.3684211,18.6911765 C11.9262632,18.6911765 11.5789474,18.327261 11.5789474,17.8639706 C11.5789474,16.772114 10,16.772114 10,17.8639706 C10,19.2371875 11.0577895,20.3455882 12.3684211,20.3455882 L13.2631579,20.3455882 L13.2631579,21.1727941 C13.2631579,21.7188051 13.6578947,22 14.0526316,22 C14.4473684,22 14.8421053,21.7188051 14.8421053,21.1727941 L14.8421053,20.3455882 L15.6315789,20.3455882 C16.9422105,20.3455882 18,19.2371875 18,17.8639706 L18,16.0992647 C18,14.7260478 16.9422105,13.6176471 15.6315789,13.6176471 Z M13.2631579,13.6176471 L12.3684211,13.6176471 C11.9262632,13.6176471 11.5789474,13.2537316 11.5789474,12.7904412 L11.5789474,11.1360294 C11.5789474,10.672739 11.9262632,10.3088235 12.3684211,10.3088235 L13.2631579,10.3088235 L13.2631579,13.6176471 Z M16.4210526,17.8639706 C16.4210526,18.327261 16.0737368,18.6911765 15.6315789,18.6911765 L14.8421053,18.6911765 L14.8421053,15.2720588 L15.6315789,15.2720588 C16.0737368,15.2720588 16.4210526,15.6359743 16.4210526,16.0992647 L16.4210526,17.8639706 Z" id="Shape" fill="#FEDB41"></path>
                    <path d="M15.6,13.6176471 L14.8,13.6176471 L14.8,10.3088235 L15.6,10.3088235 C16.0480533,10.3088235 16.4,10.672739 16.4,11.1360294 C16.4,12.227886 18,12.227886 18,11.1360294 C18,9.7628125 16.9281067,8.65441176 15.6,8.65441176 L14.8,8.65441176 L14.8,7.82720588 C14.8,7.28119485 14.4,7 14,7 L14,22 C14.4,22 14.8,21.7188051 14.8,21.1727941 L14.8,20.3455882 L15.6,20.3455882 C16.9281067,20.3455882 18,19.2371875 18,17.8639706 L18,16.0992647 C18,14.7260478 16.9281067,13.6176471 15.6,13.6176471 Z M16.4,17.8639706 C16.4,18.327261 16.0480533,18.6911765 15.6,18.6911765 L14.8,18.6911765 L14.8,15.2720588 L15.6,15.2720588 C16.0480533,15.2720588 16.4,15.6359743 16.4,16.0992647 L16.4,17.8639706 Z" id="Shape" fill="#FFCC33"></path>
                </g>
                <g id="Group-18" transform="translate(31.000000, 68.000000)" fill-rule="nonzero">
                    <g id="dollar">
                        <path d="M8.03125,0 C3.6344375,0 0,3.571875 0,7.96875 C0,12.365625 3.6344375,16 8.03125,16 C12.4280625,16 16,12.365625 16,7.96875 C16,3.571875 12.4280625,0 8.03125,0 Z" id="Shape" fill="#FEDB41"></path>
                        <path d="M16,7.96875 C16,12.365625 12.4140549,16 8,16 L8,0 C12.4140549,0 16,3.571875 16,7.96875 Z" id="Shape" fill="#FEDB41"></path>
                        <path d="M7.74489796,1.71428571 C4.45708163,1.71428571 1.71428571,4.39588776 1.71428571,7.68367347 C1.71428571,10.9714592 4.45708163,13.7142857 7.74489796,13.7142857 C11.0327143,13.7142857 13.7142857,10.9714592 13.7142857,7.68367347 C13.7142857,4.39588776 11.0327143,1.71428571 7.74489796,1.71428571 Z" id="Shape" fill="#FEA832"></path>
                        <path d="M14.2857143,7.68367347 C14.2857143,10.9714592 11.4620425,13.7142857 8,13.7142857 L8,1.71428571 C11.4620425,1.71428571 14.2857143,4.39588776 14.2857143,7.68367347 Z" id="Shape" fill="#FEA832"></path>
                        <path d="M8.93233083,7.78151261 L8.48120301,7.78151261 L8.48120301,5.8907563 L8.93233083,5.8907563 C9.18499248,5.8907563 9.38345865,6.09870798 9.38345865,6.36344538 C9.38345865,6.98736345 10.2857143,6.98736345 10.2857143,6.36344538 C10.2857143,5.57875 9.68126316,4.94537815 8.93233083,4.94537815 L8.48120301,4.94537815 L8.48120301,4.47268908 C8.48120301,4.16068277 8.2556391,4 8.03007519,4 C7.80451128,4 7.57894737,4.16068277 7.57894737,4.47268908 L7.57894737,4.94537815 L7.06766917,4.94537815 C6.31873684,4.94537815 5.71428571,5.57875 5.71428571,6.36344538 L5.71428571,7.30882353 C5.71428571,8.09351891 6.31873684,8.72689076 7.06766917,8.72689076 L7.57894737,8.72689076 L7.57894737,10.6806723 L7.06766917,10.6806723 C6.81500752,10.6806723 6.61654135,10.4727206 6.61654135,10.2079832 C6.61654135,9.58406513 5.71428571,9.58406513 5.71428571,10.2079832 C5.71428571,10.9926786 6.31873684,11.6260504 7.06766917,11.6260504 L7.57894737,11.6260504 L7.57894737,12.0987395 C7.57894737,12.4107458 7.80451128,12.5714286 8.03007519,12.5714286 C8.2556391,12.5714286 8.48120301,12.4107458 8.48120301,12.0987395 L8.48120301,11.6260504 L8.93233083,11.6260504 C9.68126316,11.6260504 10.2857143,10.9926786 10.2857143,10.2079832 L10.2857143,9.19957983 C10.2857143,8.41488445 9.68126316,7.78151261 8.93233083,7.78151261 Z M7.57894737,7.78151261 L7.06766917,7.78151261 C6.81500752,7.78151261 6.61654135,7.57356092 6.61654135,7.30882353 L6.61654135,6.36344538 C6.61654135,6.09870798 6.81500752,5.8907563 7.06766917,5.8907563 L7.57894737,5.8907563 L7.57894737,7.78151261 Z M9.38345865,10.2079832 C9.38345865,10.4727206 9.18499248,10.6806723 8.93233083,10.6806723 L8.48120301,10.6806723 L8.48120301,8.72689076 L8.93233083,8.72689076 C9.18499248,8.72689076 9.38345865,8.93484244 9.38345865,9.19957983 L9.38345865,10.2079832 Z" id="Shape" fill="#FEDB41"></path>
                        <path d="M8.91428571,7.78151261 L8.45714286,7.78151261 L8.45714286,5.8907563 L8.91428571,5.8907563 C9.17031619,5.8907563 9.37142857,6.09870798 9.37142857,6.36344538 C9.37142857,6.98736345 10.2857143,6.98736345 10.2857143,6.36344538 C10.2857143,5.57875 9.67320381,4.94537815 8.91428571,4.94537815 L8.45714286,4.94537815 L8.45714286,4.47268908 C8.45714286,4.16068277 8.22857143,4 8,4 L8,12.5714286 C8.22857143,12.5714286 8.45714286,12.4107458 8.45714286,12.0987395 L8.45714286,11.6260504 L8.91428571,11.6260504 C9.67320381,11.6260504 10.2857143,10.9926786 10.2857143,10.2079832 L10.2857143,9.19957983 C10.2857143,8.41488445 9.67320381,7.78151261 8.91428571,7.78151261 Z M9.37142857,10.2079832 C9.37142857,10.4727206 9.17031619,10.6806723 8.91428571,10.6806723 L8.45714286,10.6806723 L8.45714286,8.72689076 L8.91428571,8.72689076 C9.17031619,8.72689076 9.37142857,8.93484244 9.37142857,9.19957983 L9.37142857,10.2079832 Z" id="Shape" fill="#FFCC33"></path>
                    </g>
                </g>
                <g id="Group-18" transform="translate(47.000000, 133.000000)" fill-rule="nonzero">
                    <g id="dollar">
                        <path d="M8.03125,0 C3.6344375,0 0,3.571875 0,7.96875 C0,12.365625 3.6344375,16 8.03125,16 C12.4280625,16 16,12.365625 16,7.96875 C16,3.571875 12.4280625,0 8.03125,0 Z" id="Shape" fill="#FEDB41"></path>
                        <path d="M16,7.96875 C16,12.365625 12.4140549,16 8,16 L8,0 C12.4140549,0 16,3.571875 16,7.96875 Z" id="Shape" fill="#FEDB41"></path>
                        <path d="M7.74489796,1.71428571 C4.45708163,1.71428571 1.71428571,4.39588776 1.71428571,7.68367347 C1.71428571,10.9714592 4.45708163,13.7142857 7.74489796,13.7142857 C11.0327143,13.7142857 13.7142857,10.9714592 13.7142857,7.68367347 C13.7142857,4.39588776 11.0327143,1.71428571 7.74489796,1.71428571 Z" id="Shape" fill="#FEA832"></path>
                        <path d="M14.2857143,7.68367347 C14.2857143,10.9714592 11.4620425,13.7142857 8,13.7142857 L8,1.71428571 C11.4620425,1.71428571 14.2857143,4.39588776 14.2857143,7.68367347 Z" id="Shape" fill="#FEA832"></path>
                        <path d="M8.93233083,7.78151261 L8.48120301,7.78151261 L8.48120301,5.8907563 L8.93233083,5.8907563 C9.18499248,5.8907563 9.38345865,6.09870798 9.38345865,6.36344538 C9.38345865,6.98736345 10.2857143,6.98736345 10.2857143,6.36344538 C10.2857143,5.57875 9.68126316,4.94537815 8.93233083,4.94537815 L8.48120301,4.94537815 L8.48120301,4.47268908 C8.48120301,4.16068277 8.2556391,4 8.03007519,4 C7.80451128,4 7.57894737,4.16068277 7.57894737,4.47268908 L7.57894737,4.94537815 L7.06766917,4.94537815 C6.31873684,4.94537815 5.71428571,5.57875 5.71428571,6.36344538 L5.71428571,7.30882353 C5.71428571,8.09351891 6.31873684,8.72689076 7.06766917,8.72689076 L7.57894737,8.72689076 L7.57894737,10.6806723 L7.06766917,10.6806723 C6.81500752,10.6806723 6.61654135,10.4727206 6.61654135,10.2079832 C6.61654135,9.58406513 5.71428571,9.58406513 5.71428571,10.2079832 C5.71428571,10.9926786 6.31873684,11.6260504 7.06766917,11.6260504 L7.57894737,11.6260504 L7.57894737,12.0987395 C7.57894737,12.4107458 7.80451128,12.5714286 8.03007519,12.5714286 C8.2556391,12.5714286 8.48120301,12.4107458 8.48120301,12.0987395 L8.48120301,11.6260504 L8.93233083,11.6260504 C9.68126316,11.6260504 10.2857143,10.9926786 10.2857143,10.2079832 L10.2857143,9.19957983 C10.2857143,8.41488445 9.68126316,7.78151261 8.93233083,7.78151261 Z M7.57894737,7.78151261 L7.06766917,7.78151261 C6.81500752,7.78151261 6.61654135,7.57356092 6.61654135,7.30882353 L6.61654135,6.36344538 C6.61654135,6.09870798 6.81500752,5.8907563 7.06766917,5.8907563 L7.57894737,5.8907563 L7.57894737,7.78151261 Z M9.38345865,10.2079832 C9.38345865,10.4727206 9.18499248,10.6806723 8.93233083,10.6806723 L8.48120301,10.6806723 L8.48120301,8.72689076 L8.93233083,8.72689076 C9.18499248,8.72689076 9.38345865,8.93484244 9.38345865,9.19957983 L9.38345865,10.2079832 Z" id="Shape" fill="#FEDB41"></path>
                        <path d="M8.91428571,7.78151261 L8.45714286,7.78151261 L8.45714286,5.8907563 L8.91428571,5.8907563 C9.17031619,5.8907563 9.37142857,6.09870798 9.37142857,6.36344538 C9.37142857,6.98736345 10.2857143,6.98736345 10.2857143,6.36344538 C10.2857143,5.57875 9.67320381,4.94537815 8.91428571,4.94537815 L8.45714286,4.94537815 L8.45714286,4.47268908 C8.45714286,4.16068277 8.22857143,4 8,4 L8,12.5714286 C8.22857143,12.5714286 8.45714286,12.4107458 8.45714286,12.0987395 L8.45714286,11.6260504 L8.91428571,11.6260504 C9.67320381,11.6260504 10.2857143,10.9926786 10.2857143,10.2079832 L10.2857143,9.19957983 C10.2857143,8.41488445 9.67320381,7.78151261 8.91428571,7.78151261 Z M9.37142857,10.2079832 C9.37142857,10.4727206 9.17031619,10.6806723 8.91428571,10.6806723 L8.45714286,10.6806723 L8.45714286,8.72689076 L8.91428571,8.72689076 C9.17031619,8.72689076 9.37142857,8.93484244 9.37142857,9.19957983 L9.37142857,10.2079832 Z" id="Shape" fill="#FFCC33"></path>
                    </g>
                </g>
                <g id="Group-18" transform="translate(132.000000, 68.000000)" fill-rule="nonzero">
                    <g id="dollar">
                        <path d="M8.03125,0 C3.6344375,0 0,3.571875 0,7.96875 C0,12.365625 3.6344375,16 8.03125,16 C12.4280625,16 16,12.365625 16,7.96875 C16,3.571875 12.4280625,0 8.03125,0 Z" id="Shape" fill="#FEDB41"></path>
                        <path d="M16,7.96875 C16,12.365625 12.4140549,16 8,16 L8,0 C12.4140549,0 16,3.571875 16,7.96875 Z" id="Shape" fill="#FEDB41"></path>
                        <path d="M7.74489796,1.71428571 C4.45708163,1.71428571 1.71428571,4.39588776 1.71428571,7.68367347 C1.71428571,10.9714592 4.45708163,13.7142857 7.74489796,13.7142857 C11.0327143,13.7142857 13.7142857,10.9714592 13.7142857,7.68367347 C13.7142857,4.39588776 11.0327143,1.71428571 7.74489796,1.71428571 Z" id="Shape" fill="#FEA832"></path>
                        <path d="M14.2857143,7.68367347 C14.2857143,10.9714592 11.4620425,13.7142857 8,13.7142857 L8,1.71428571 C11.4620425,1.71428571 14.2857143,4.39588776 14.2857143,7.68367347 Z" id="Shape" fill="#FEA832"></path>
                        <path d="M8.93233083,7.78151261 L8.48120301,7.78151261 L8.48120301,5.8907563 L8.93233083,5.8907563 C9.18499248,5.8907563 9.38345865,6.09870798 9.38345865,6.36344538 C9.38345865,6.98736345 10.2857143,6.98736345 10.2857143,6.36344538 C10.2857143,5.57875 9.68126316,4.94537815 8.93233083,4.94537815 L8.48120301,4.94537815 L8.48120301,4.47268908 C8.48120301,4.16068277 8.2556391,4 8.03007519,4 C7.80451128,4 7.57894737,4.16068277 7.57894737,4.47268908 L7.57894737,4.94537815 L7.06766917,4.94537815 C6.31873684,4.94537815 5.71428571,5.57875 5.71428571,6.36344538 L5.71428571,7.30882353 C5.71428571,8.09351891 6.31873684,8.72689076 7.06766917,8.72689076 L7.57894737,8.72689076 L7.57894737,10.6806723 L7.06766917,10.6806723 C6.81500752,10.6806723 6.61654135,10.4727206 6.61654135,10.2079832 C6.61654135,9.58406513 5.71428571,9.58406513 5.71428571,10.2079832 C5.71428571,10.9926786 6.31873684,11.6260504 7.06766917,11.6260504 L7.57894737,11.6260504 L7.57894737,12.0987395 C7.57894737,12.4107458 7.80451128,12.5714286 8.03007519,12.5714286 C8.2556391,12.5714286 8.48120301,12.4107458 8.48120301,12.0987395 L8.48120301,11.6260504 L8.93233083,11.6260504 C9.68126316,11.6260504 10.2857143,10.9926786 10.2857143,10.2079832 L10.2857143,9.19957983 C10.2857143,8.41488445 9.68126316,7.78151261 8.93233083,7.78151261 Z M7.57894737,7.78151261 L7.06766917,7.78151261 C6.81500752,7.78151261 6.61654135,7.57356092 6.61654135,7.30882353 L6.61654135,6.36344538 C6.61654135,6.09870798 6.81500752,5.8907563 7.06766917,5.8907563 L7.57894737,5.8907563 L7.57894737,7.78151261 Z M9.38345865,10.2079832 C9.38345865,10.4727206 9.18499248,10.6806723 8.93233083,10.6806723 L8.48120301,10.6806723 L8.48120301,8.72689076 L8.93233083,8.72689076 C9.18499248,8.72689076 9.38345865,8.93484244 9.38345865,9.19957983 L9.38345865,10.2079832 Z" id="Shape" fill="#FEDB41"></path>
                        <path d="M8.91428571,7.78151261 L8.45714286,7.78151261 L8.45714286,5.8907563 L8.91428571,5.8907563 C9.17031619,5.8907563 9.37142857,6.09870798 9.37142857,6.36344538 C9.37142857,6.98736345 10.2857143,6.98736345 10.2857143,6.36344538 C10.2857143,5.57875 9.67320381,4.94537815 8.91428571,4.94537815 L8.45714286,4.94537815 L8.45714286,4.47268908 C8.45714286,4.16068277 8.22857143,4 8,4 L8,12.5714286 C8.22857143,12.5714286 8.45714286,12.4107458 8.45714286,12.0987395 L8.45714286,11.6260504 L8.91428571,11.6260504 C9.67320381,11.6260504 10.2857143,10.9926786 10.2857143,10.2079832 L10.2857143,9.19957983 C10.2857143,8.41488445 9.67320381,7.78151261 8.91428571,7.78151261 Z M9.37142857,10.2079832 C9.37142857,10.4727206 9.17031619,10.6806723 8.91428571,10.6806723 L8.45714286,10.6806723 L8.45714286,8.72689076 L8.91428571,8.72689076 C9.17031619,8.72689076 9.37142857,8.93484244 9.37142857,9.19957983 L9.37142857,10.2079832 Z" id="Shape" fill="#FFCC33"></path>
                    </g>
                </g>
                <g id="Group-18" transform="translate(61.000000, 52.000000)" fill-rule="nonzero">
                    <g id="dollar">
                        <path d="M8.03125,0 C3.6344375,0 0,3.571875 0,7.96875 C0,12.365625 3.6344375,16 8.03125,16 C12.4280625,16 16,12.365625 16,7.96875 C16,3.571875 12.4280625,0 8.03125,0 Z" id="Shape" fill="#FEDB41"></path>
                        <path d="M16,7.96875 C16,12.365625 12.4140549,16 8,16 L8,0 C12.4140549,0 16,3.571875 16,7.96875 Z" id="Shape" fill="#FEDB41"></path>
                        <path d="M7.74489796,1.71428571 C4.45708163,1.71428571 1.71428571,4.39588776 1.71428571,7.68367347 C1.71428571,10.9714592 4.45708163,13.7142857 7.74489796,13.7142857 C11.0327143,13.7142857 13.7142857,10.9714592 13.7142857,7.68367347 C13.7142857,4.39588776 11.0327143,1.71428571 7.74489796,1.71428571 Z" id="Shape" fill="#FEA832"></path>
                        <path d="M14.2857143,7.68367347 C14.2857143,10.9714592 11.4620425,13.7142857 8,13.7142857 L8,1.71428571 C11.4620425,1.71428571 14.2857143,4.39588776 14.2857143,7.68367347 Z" id="Shape" fill="#FEA832"></path>
                        <path d="M8.93233083,7.78151261 L8.48120301,7.78151261 L8.48120301,5.8907563 L8.93233083,5.8907563 C9.18499248,5.8907563 9.38345865,6.09870798 9.38345865,6.36344538 C9.38345865,6.98736345 10.2857143,6.98736345 10.2857143,6.36344538 C10.2857143,5.57875 9.68126316,4.94537815 8.93233083,4.94537815 L8.48120301,4.94537815 L8.48120301,4.47268908 C8.48120301,4.16068277 8.2556391,4 8.03007519,4 C7.80451128,4 7.57894737,4.16068277 7.57894737,4.47268908 L7.57894737,4.94537815 L7.06766917,4.94537815 C6.31873684,4.94537815 5.71428571,5.57875 5.71428571,6.36344538 L5.71428571,7.30882353 C5.71428571,8.09351891 6.31873684,8.72689076 7.06766917,8.72689076 L7.57894737,8.72689076 L7.57894737,10.6806723 L7.06766917,10.6806723 C6.81500752,10.6806723 6.61654135,10.4727206 6.61654135,10.2079832 C6.61654135,9.58406513 5.71428571,9.58406513 5.71428571,10.2079832 C5.71428571,10.9926786 6.31873684,11.6260504 7.06766917,11.6260504 L7.57894737,11.6260504 L7.57894737,12.0987395 C7.57894737,12.4107458 7.80451128,12.5714286 8.03007519,12.5714286 C8.2556391,12.5714286 8.48120301,12.4107458 8.48120301,12.0987395 L8.48120301,11.6260504 L8.93233083,11.6260504 C9.68126316,11.6260504 10.2857143,10.9926786 10.2857143,10.2079832 L10.2857143,9.19957983 C10.2857143,8.41488445 9.68126316,7.78151261 8.93233083,7.78151261 Z M7.57894737,7.78151261 L7.06766917,7.78151261 C6.81500752,7.78151261 6.61654135,7.57356092 6.61654135,7.30882353 L6.61654135,6.36344538 C6.61654135,6.09870798 6.81500752,5.8907563 7.06766917,5.8907563 L7.57894737,5.8907563 L7.57894737,7.78151261 Z M9.38345865,10.2079832 C9.38345865,10.4727206 9.18499248,10.6806723 8.93233083,10.6806723 L8.48120301,10.6806723 L8.48120301,8.72689076 L8.93233083,8.72689076 C9.18499248,8.72689076 9.38345865,8.93484244 9.38345865,9.19957983 L9.38345865,10.2079832 Z" id="Shape" fill="#FEDB41"></path>
                        <path d="M8.91428571,7.78151261 L8.45714286,7.78151261 L8.45714286,5.8907563 L8.91428571,5.8907563 C9.17031619,5.8907563 9.37142857,6.09870798 9.37142857,6.36344538 C9.37142857,6.98736345 10.2857143,6.98736345 10.2857143,6.36344538 C10.2857143,5.57875 9.67320381,4.94537815 8.91428571,4.94537815 L8.45714286,4.94537815 L8.45714286,4.47268908 C8.45714286,4.16068277 8.22857143,4 8,4 L8,12.5714286 C8.22857143,12.5714286 8.45714286,12.4107458 8.45714286,12.0987395 L8.45714286,11.6260504 L8.91428571,11.6260504 C9.67320381,11.6260504 10.2857143,10.9926786 10.2857143,10.2079832 L10.2857143,9.19957983 C10.2857143,8.41488445 9.67320381,7.78151261 8.91428571,7.78151261 Z M9.37142857,10.2079832 C9.37142857,10.4727206 9.17031619,10.6806723 8.91428571,10.6806723 L8.45714286,10.6806723 L8.45714286,8.72689076 L8.91428571,8.72689076 C9.17031619,8.72689076 9.37142857,8.93484244 9.37142857,9.19957983 L9.37142857,10.2079832 Z" id="Shape" fill="#FFCC33"></path>
                    </g>
                </g>
                <g id="Group-36" transform="translate(63.000000, 77.000000)">
                    <g id="Group-30">
                        <g id="Group-16">
                            <g id="Group-8" transform="translate(0.000000, 0.178082)">
                                <path d="M67.963964,34.3215781 C67.963964,15.4396997 52.8665627,0.118581744 34.1987954,0.000667186375 C15.4732968,-0.117247372 0,15.4098971 0,34.3215781 C0,43.846742 3.84362798,52.4622794 10.0465456,58.6793568 C16.0121231,64.6580136 19.4554801,72.7332172 19.4554801,81.2191781 L48.5084839,81.2191781 L48.5084839,81.0494329 C48.5084839,72.6049365 52.0005918,64.6165492 57.9328134,58.6663992 C64.1280335,52.4506175 67.963964,43.8389675 67.963964,34.3215781" id="Fill-18" fill="#FFD525"></path>
                                <path d="M38.1261261,36.4651199 C38.1261261,39.2108531 35.8997244,41.4383562 33.1525196,41.4383562 C30.4065819,41.4383562 28.1801802,39.2108531 28.1801802,36.4651199 C28.1801802,33.7193866 30.4065819,31.4931507 33.1525196,31.4931507 C35.8997244,31.4931507 38.1261261,33.7193866 38.1261261,36.4651199 Z" id="Stroke-20" stroke="#4057FF"></path>
                                <path d="M46.4144144,36.4651199 C46.4144144,39.2108531 44.1882963,41.4383562 41.4414414,41.4383562 C38.6958536,41.4383562 36.4684685,39.2108531 36.4684685,36.4651199 C36.4684685,33.7193866 38.6958536,31.4931507 41.4414414,31.4931507 C44.1882963,31.4931507 46.4144144,33.7193866 46.4144144,36.4651199 Z" id="Stroke-22" stroke="#4057FF"></path>
                                <path d="M31.4954955,36.4651199 C31.4954955,39.2108531 29.2690938,41.4383562 26.5218889,41.4383562 C23.7759513,41.4383562 21.5495495,39.2108531 21.5495495,36.4651199 C21.5495495,33.7193866 23.7759513,31.4931507 26.5218889,31.4931507 C29.2690938,31.4931507 31.4954955,33.7193866 31.4954955,36.4651199 Z" id="Stroke-24" stroke="#4057FF"></path>
                                <path d="M21.5495495,36.4657534 L25.6936937,82.0479452" id="Stroke-26" stroke="#4057FF"></path>
                                <path d="M46,38.5376712 L41.4414414,82.0479452" id="Stroke-28" stroke="#4057FF"></path>
                                <polygon id="Fill-30" fill="#5857FF" points="16.5765766 85.3630137 51.3873874 85.3630137 51.3873874 81.2191781 16.5765766 81.2191781"></polygon>
                                <polygon id="Fill-32" fill="#5857FF" points="19.0630631 88.6780822 49.7297297 88.6780822 49.7297297 84.5342466 19.0630631 84.5342466"></polygon>
                                <polygon id="Fill-33" fill="#5857FF" points="20.7207207 92.8219178 47.2432432 92.8219178 47.2432432 88.6780822 20.7207207 88.6780822"></polygon>
                                <path d="M26.5225225,16.5753425 C26.5225225,19.3211821 24.2958743,21.5479452 21.5489227,21.5479452 C18.8032248,21.5479452 16.5765766,19.3211821 16.5765766,16.5753425 C16.5765766,13.8295028 18.8032248,11.6027397 21.5489227,11.6027397 C24.2958743,11.6027397 26.5225225,13.8295028 26.5225225,16.5753425" id="Fill-34" fill="#FFE161"></path>
                            </g>
                        </g>
                    </g>
                </g>
                <g id="Group-27" transform="translate(100.000000, 28.000000)">
                    <path d="M13.0133051,0 L13.0133051,0.456387999 C13.0133051,7.89400781 7.18653887,13.9233446 0,13.9233446 C7.18653887,13.9233446 13.0133051,19.9536845 13.0133051,27.3913043 L13.0133051,26.9349163 C13.0133051,19.4962935 18.8391022,13.4669566 26.025641,13.4669566 C18.8391022,13.4669566 13.0133051,7.43761981 13.0133051,0" id="Fill-12" fill="#FFD525"></path>
                    <path d="M13.3846154,14.076087 C13.3846154,15.5466026 12.2193176,16.7391304 10.7817232,16.7391304 C9.34478501,16.7391304 8.17948718,15.5466026 8.17948718,14.076087 C8.17948718,12.6055713 9.34478501,11.4130435 10.7817232,11.4130435 C12.2193176,11.4130435 13.3846154,12.6055713 13.3846154,14.076087" id="Fill-34" fill="#FFE161"></path>
                </g>
                <g id="Group-28" transform="translate(16.000000, 90.000000)">
                    <g id="Group-27" transform="translate(0.000000, 6.000000)">
                        <path d="M13.0133051,0 L13.0133051,0.456387999 C13.0133051,7.89400781 7.18653887,13.9233446 0,13.9233446 C7.18653887,13.9233446 13.0133051,19.9536845 13.0133051,27.3913043 L13.0133051,26.9349163 C13.0133051,19.4962935 18.8391022,13.4669566 26.025641,13.4669566 C18.8391022,13.4669566 13.0133051,7.43761981 13.0133051,0" id="Fill-12" fill="#FFD525"></path>
                        <path d="M13.3846154,14.076087 C13.3846154,15.5466026 12.2193176,16.7391304 10.7817232,16.7391304 C9.34478501,16.7391304 8.17948718,15.5466026 8.17948718,14.076087 C8.17948718,12.6055713 9.34478501,11.4130435 10.7817232,11.4130435 C12.2193176,11.4130435 13.3846154,12.6055713 13.3846154,14.076087" id="Fill-34" fill="#FFE161"></path>
                    </g>
                    <g id="Group-27" transform="translate(142.000000, 0.000000)">
                        <path d="M13.0133051,0 L13.0133051,0.456387999 C13.0133051,7.89400781 7.18653887,13.9233446 0,13.9233446 C7.18653887,13.9233446 13.0133051,19.9536845 13.0133051,27.3913043 L13.0133051,26.9349163 C13.0133051,19.4962935 18.8391022,13.4669566 26.025641,13.4669566 C18.8391022,13.4669566 13.0133051,7.43761981 13.0133051,0" id="Fill-12" fill="#FFD525"></path>
                        <path d="M13.3846154,14.076087 C13.3846154,15.5466026 12.2193176,16.7391304 10.7817232,16.7391304 C9.34478501,16.7391304 8.17948718,15.5466026 8.17948718,14.076087 C8.17948718,12.6055713 9.34478501,11.4130435 10.7817232,11.4130435 C12.2193176,11.4130435 13.3846154,12.6055713 13.3846154,14.076087" id="Fill-34" fill="#FFE161"></path>
                    </g>
                </g>
                <path d="M147.855928,47.5059037 C147.358226,44.554678 145.004052,42.2419014 142,41.7529519 C145.004052,41.2640024 147.358226,38.9512257 147.855928,36 C148.353629,38.9512257 150.707804,41.2640024 153.711856,41.7529519 C150.707804,42.2419014 148.353801,44.554678 147.855928,47.5059037 Z" id="Shape" fill="#FEA832" fill-rule="nonzero"></path>
                <path d="M153.855928,63.5059037 C153.358226,60.554678 151.004052,58.2419014 148,57.7529519 C151.004052,57.2640024 153.358226,54.9512257 153.855928,52 C154.353629,54.9512257 156.707804,57.2640024 159.711856,57.7529519 C156.707804,58.2419014 154.353801,60.554678 153.855928,63.5059037 Z" id="Shape" fill="#FEA832" fill-rule="nonzero"></path>
            </g>
        </g>
    </g>
</svg>