<?xml version="1.0" encoding="UTF-8"?>
<svg width="219px" height="219px" viewBox="0 0 219 219" version="1.1" xmlns="http://www.w3.org/2000/svg" xmlns:xlink="http://www.w3.org/1999/xlink">
    <!-- Generator: sketchtool 51.2 (57519) - http://www.bohemiancoding.com/sketch -->
    <title>CB41E94B-5FA5-47E5-8799-63632A52DBB8</title>
    <desc>Created with sketchtool.</desc>
    <defs></defs>
    <g id="Landing-page" stroke="none" stroke-width="1" fill="none" fill-rule="evenodd">
        <g id="Landing-Page" transform="translate(-884.000000, -1020.000000)">
            <g id="Group-19" transform="translate(884.000000, 1020.000000)">
                <g id="Group-13">
                    <g id="Group-33">
                        <rect id="Rectangle" fill="#FFFFFF" x="0" y="0" width="219" height="219"></rect>
                        <g id="Group-29" transform="translate(134.000000, 28.000000)">
                            <g id="Group-10">
                                <path d="M46,40 L46,40.200136 C46,43.4583277 43.3138538,46.0997961 40,46.0997961 C43.3138538,46.0997961 46,48.7412644 46,52 L46,51.799864 C46,48.5416723 48.6861462,45.9002039 52,45.9002039 C48.6861462,45.9002039 46,43.2587356 46,40" id="Fill-20" fill="#4057FF"></path>
                                <g id="Group-14">
                                    <path d="M13.0133051,0 L13.0133051,0.456387999 C13.0133051,7.89400781 7.18653887,13.9233446 0,13.9233446 C7.18653887,13.9233446 13.0133051,19.9536845 13.0133051,27.3913043 L13.0133051,26.9349163 C13.0133051,19.4962935 18.8391022,13.4669566 26.025641,13.4669566 C18.8391022,13.4669566 13.0133051,7.43761981 13.0133051,0" id="Fill-12" fill="#FFD525"></path>
                                    <path d="M23.0512821,22.826087 L23.0512821,23.0286447 C23.0512821,26.334815 20.3876192,29.0148093 17.1025641,29.0148093 C20.3876192,29.0148093 23.0512821,31.6938297 23.0512821,35 L23.0512821,34.7974423 C23.0512821,31.491272 25.7149449,28.8112777 29,28.8112777 C25.7149449,28.8112777 23.0512821,26.1322572 23.0512821,22.826087" id="Fill-14" fill="#FF5E99"></path>
                                    <path d="M13.3846154,14.076087 C13.3846154,15.5466026 12.2193176,16.7391304 10.7817232,16.7391304 C9.34478501,16.7391304 8.17948718,15.5466026 8.17948718,14.076087 C8.17948718,12.6055713 9.34478501,11.4130435 10.7817232,11.4130435 C12.2193176,11.4130435 13.3846154,12.6055713 13.3846154,14.076087" id="Fill-34" fill="#FFE161"></path>
                                </g>
                                <g id="Group-23" transform="translate(34.000000, 15.000000)">
                                    <path d="M9.37163911,-5.08993498e-05 L9.37163911,0.316543054 C9.37163911,5.47417413 5.19025756,9.65555568 0.0321174895,9.65555568 C5.19025756,9.65555568 9.37163911,13.8369372 9.37163911,18.9945683 L9.37163911,18.6784834 C9.37163911,13.5203433 13.5530207,9.33896173 18.7111607,9.33896173 C13.5530207,9.33896173 9.37163911,5.15758018 9.37163911,-5.08993498e-05" id="Fill-19" fill="#009CFF"></path>
                                    <path d="M8.40384615,10.9615385 C7.39485684,10.9615385 6.57692308,10.1436047 6.57692308,9.13461538 C6.57692308,8.12562607 7.39485684,7.30769231 8.40384615,7.30769231 C9.41283547,7.30769231 10.2307692,8.12562607 10.2307692,9.13461538 C10.2307692,10.1436047 9.41283547,10.9615385 8.40384615,10.9615385 Z" id="Fill-7" fill="#49A8FB"></path>
                                </g>
                            </g>
                        </g>
                    </g>
                    <g id="Group-60" transform="translate(51.000000, 61.000000)">
                        <g id="meter">
                            <path d="M60.5003999,10.6055777 C32.9446215,10.6055777 10.6055777,32.9438217 10.6055777,60.4996001 C10.6055777,88.0553785 32.9446215,110.394422 60.5003999,110.394422 C88.0561783,110.394422 110.394422,88.0553785 110.394422,60.4996001 C110.342447,32.9646118 88.0353882,10.6575531 60.5003999,10.6055777 Z" id="Shape" fill="#F8F8F8"></path>
                            <path d="M94.0039841,97.1371485 C74.9310765,114.813514 45.5868518,114.813514 26.5139442,97.1371485 C45.5868518,79.4615879 74.9310765,79.4615879 94.0039841,97.1371485 Z" id="Shape" fill="#FFD525"></path>
                            <path d="M64.4625753,67.4817992 C61.1382996,70.5441201 55.5306345,68.4009742 53.2608461,64.4857034 C50.9910579,60.5712304 51.9255354,54.6588285 56.2650953,53.3143753 L87.3861257,43.7195161 C87.9138965,43.5568002 88.4736465,43.8527357 88.6363624,44.3805064 C88.749762,44.7483192 88.6419982,45.1485698 88.3592548,45.4097247 L64.4625753,67.4817992 Z" id="Shape" fill="#8757FF"></path>
                            <path d="M60.5,0 C27.0869619,0 0,27.0869619 0,60.5 C0,93.9130381 27.0869619,121 60.5,121 C93.9130381,121 121,93.9130381 121,60.5 C120.941618,27.1109547 93.8890453,0.0583821929 60.5,0 Z M60.5,110.389627 C33.7481362,110.334444 11.778018,89.2312618 10.6503608,62.5017912 L15.989537,62.5017912 C17.0940013,62.5017912 17.9913283,61.605264 17.9913283,60.5 C17.9913283,59.394736 17.094801,58.4982088 15.989537,58.4982088 L10.6503608,58.4982088 C10.9414723,51.099659 12.8896798,43.8618602 16.3494277,37.3166508 L21.0208069,39.986239 C21.9789154,40.5388708 23.204143,40.2101709 23.7567747,39.2520622 C24.3094067,38.2939535 23.9815063,37.0687263 23.0225981,36.5160943 L18.3784105,33.8465061 C22.3260099,27.6196 27.5924082,22.3340076 33.8073181,18.3648147 L36.4761064,23.0090021 C37.0287384,23.9671108 38.2539657,24.2958109 39.2120744,23.7431789 C40.1709827,23.190547 40.498883,21.9653196 39.9462511,21.0072111 L37.2766629,16.3630235 C43.833069,12.8928788 51.0852633,10.9398729 58.4982088,10.6503608 L58.4982088,15.989537 C58.4606201,17.0940013 59.3267568,18.0201195 60.4320207,18.0569082 C60.4544139,18.0577081 60.4768071,18.0577081 60.5,18.0577081 C61.604464,18.0577081 62.5017912,17.1611806 62.5017912,16.0559169 L62.5017912,10.7175404 C69.8995412,11.0078522 77.1373401,12.9568594 83.6825495,16.4166072 L81.013761,21.0879865 C80.4611292,22.0460952 80.7890294,23.2713223 81.7471381,23.8239543 C82.7060465,24.3765863 83.9312737,24.0478862 84.4839057,23.0897777 L87.1526942,18.4447904 C93.3740019,22.3731956 98.6579949,27.6172007 102.635185,33.8073181 L97.990198,36.4761064 C97.0320895,37.0287384 96.7033894,38.2539657 97.2560214,39.2120744 C97.8086531,40.1709827 99.0338807,40.498883 99.9919892,39.9462511 L104.636977,37.2774628 C108.096724,43.8218723 110.044932,51.0604708 110.336043,58.458221 L104.997667,58.458221 C103.892403,58.458221 102.995076,59.3547483 102.995076,60.4600123 C102.995076,61.565276 103.892403,62.4626032 104.997667,62.4626032 L110.336043,62.4626032 C109.236378,89.2056696 87.2662595,110.340042 60.5,110.402423 C60.5,110.402423 60.5,110.389627 60.5,110.389627 Z" id="Shape" fill="#E5E5E5"></path>
                            <path d="M65.0796813,60.7410359 C65.0796813,63.1370405 63.1370405,65.0796813 60.7410359,65.0796813 C58.3450312,65.0796813 56.4023904,63.1370405 56.4023904,60.7410359 C56.4023904,58.3450312 58.3450312,56.4023904 60.7410359,56.4023904 C63.1370405,56.4023904 65.0796813,58.3450312 65.0796813,60.7410359 Z" id="Shape" fill="#FFFFFF" fill-rule="nonzero"></path>
                        </g>
                    </g>
                </g>
                <path d="M93.5,161 C95.4330393,161 97,159.433039 97,157.5 C97,155.566961 95.4330393,154 93.5,154 C91.5670378,154 90,155.566961 90,157.5 C90,159.433039 91.5670378,161 93.5,161 Z" id="Fill-24" fill="#FFE784"></path>
                <path d="M129.5,73 C131.433039,73 133,71.4330393 133,69.5 C133,67.5669607 131.433039,66 129.5,66 C127.567038,66 126,67.5669607 126,69.5 C126,71.4330393 127.567038,73 129.5,73 Z" id="Fill-24" fill="#F8F8F8"></path>
            </g>
        </g>
    </g>
</svg>