<?xml version="1.0" encoding="UTF-8"?>
<svg width="528px" height="458px" viewBox="0 0 528 458" version="1.1" xmlns="http://www.w3.org/2000/svg" xmlns:xlink="http://www.w3.org/1999/xlink">
    <!-- Generator: sketchtool 51.2 (57519) - http://www.bohemiancoding.com/sketch -->
    <title>74453C26-08B0-4446-9525-6DFA41AE6029</title>
    <desc>Created with sketchtool.</desc>
    <defs>
        <linearGradient x1="50%" y1="0%" x2="125.641064%" y2="54.1628979%" id="linearGradient-1">
            <stop stop-color="#BD45CA" offset="0%"></stop>
            <stop stop-color="#FFFFFF" stop-opacity="0" offset="100%"></stop>
        </linearGradient>
        <polygon id="path-2" points="10.769487 0 0.902299479 12.0731707 420.804849 45 355.024695 0"></polygon>
        <linearGradient x1="49.9238518%" y1="80.4463271%" x2="50.4465211%" y2="-36.3946495%" id="linearGradient-4">
            <stop stop-color="#FFFFFF" stop-opacity="0" offset="0%"></stop>
            <stop stop-color="#E4E4E4" offset="100%"></stop>
        </linearGradient>
        <polyline id="path-5" points="92.8063412 19.495102 29.3431412 1.10204082 0.900458824 0.760408163 26.0651647 54"></polyline>
        <polyline id="path-7" points="101.545935 42.2169 44.7736129 1.1 19.5774194 0.0242 0.343290323 43.5457"></polyline>
        <linearGradient x1="11.0604094%" y1="152.771971%" x2="0%" y2="-36.1246354%" id="linearGradient-9">
            <stop stop-color="#FFFFFF" stop-opacity="0" offset="0%"></stop>
            <stop stop-color="#E4E4E4" offset="100%"></stop>
        </linearGradient>
        <polyline id="path-10" points="97.8051011 9.95744681 15.2208315 0 0.906224719 52"></polyline>
        <linearGradient x1="46.5596264%" y1="39.7054685%" x2="34.0047847%" y2="-14.5488496%" id="linearGradient-12">
            <stop stop-color="#FFFFFF" offset="0%"></stop>
            <stop stop-color="#E4E4E4" offset="100%"></stop>
        </linearGradient>
        <polygon id="path-13" points="9.67683871 3.25 0.902645161 65 101.805871 10.8333333 18.4510323 0"></polygon>
        <polygon id="path-15" points="0 0.758469128 48.8122799 0.758469128 48.8122799 30.3089921 0 30.3089921"></polygon>
    </defs>
    <g id="Landing-page" stroke="none" stroke-width="1" fill="none" fill-rule="evenodd">
        <g id="Landing-Page" transform="translate(-662.000000, -132.000000)">
            <g id="Group-40" transform="translate(662.000000, 132.000000)">
                <polygon id="Fill-16" fill-opacity="0.2" fill="url(#linearGradient-1)" points="151 308 495 308 495 35 151 35"></polygon>
                <polygon id="Fill-16" fill-opacity="0.8" fill="url(#linearGradient-1)" points="136 308 480 308 480 19 136 19"></polygon>
                <g id="Group-3" transform="translate(107.000000, 308.000000)">
                    <mask id="mask-3" fill="white">
                        <use xlink:href="#path-2"></use>
                    </mask>
                    <g id="Clip-2"></g>
                    <polygon id="Fill-1" fill="url(#linearGradient-4)" mask="url(#mask-3)" points="10.769487 0 0.902299479 12.0731707 420.804849 45 355.024695 0"></polygon>
                </g>
                <g id="Group-6" transform="translate(258.000000, 398.000000)">
                    <mask id="mask-6" fill="white">
                        <use xlink:href="#path-5"></use>
                    </mask>
                    <use id="Clip-5" fill="url(#linearGradient-4)" xlink:href="#path-5"></use>
                    <polyline id="Fill-4" fill="url(#linearGradient-4)" mask="url(#mask-6)" points="92.8063412 19.495102 29.3431412 1.10204082 0.900458824 0.760408163 26.0651647 54"></polyline>
                </g>
                <g id="Group-9" transform="translate(156.000000, 365.000000)">
                    <mask id="mask-8" fill="white">
                        <use xlink:href="#path-7"></use>
                    </mask>
                    <g id="Clip-8"></g>
                    <polyline id="Fill-7" fill="url(#linearGradient-9)" mask="url(#mask-8)" points="101.545935 42.2169 44.7736129 1.1 19.5774194 0.0242 0.343290323 43.5457"></polyline>
                </g>
                <g id="Group-12" transform="translate(57.000000, 327.000000)">
                    <mask id="mask-11" fill="white">
                        <use xlink:href="#path-10"></use>
                    </mask>
                    <g id="Clip-11"></g>
                    <polygon id="Fill-10" fill="url(#linearGradient-12)" mask="url(#mask-11)" points="97.8051011 9.95744681 15.2208315 0 0.906224719 52"></polygon>
                </g>
                <g id="Group-15" transform="translate(374.000000, 401.000000)">
                    <mask id="mask-14" fill="white">
                        <use xlink:href="#path-13"></use>
                    </mask>
                    <g id="Clip-14"></g>
                    <polygon id="Fill-13" fill="url(#linearGradient-4)" mask="url(#mask-14)" points="4.77419355 8.25 -4 70 96.9032258 15.8333333 13.5483871 5"></polygon>
                </g>
                <polygon id="Fill-16" fill="#F7F7F9" points="117 308 461 308 461 0 117 0"></polygon>
                <polygon id="Fill-17" fill="#DEE1E5" points="213.761905 41 228 228.223465 136 259 136 41"></polygon>
                <path d="M177,213.333296 C177,208.547019 184.845385,202 184.845385,202 C184.845385,202 194,208.547019 194,213.333296 C194,218.120704 190.19335,222 185.499445,222 C180.805539,222 177,218.120704 177,213.333296" id="Fill-18" fill="#EABFA2"></path>
                <path d="M180,224.428727 C180,224.428727 183.208068,218 185.625265,218 C188.041401,218 190,220.571273 190,220.571273 L187.498938,227 L180,224.428727 Z" id="Fill-20" fill="#EABFA2"></path>
                <path d="M200.450328,213.235488 C200.450328,211.417724 201.687091,209.251574 200.450328,208.059147 C199.107556,206.764512 199.107556,205.465481 199.107556,204.823659 C199.107556,203.036667 197.606342,201.588171 195.752908,201.588171 C194.846708,201.588171 194.5549,201.777201 193.738751,201.588171 C191.572991,201.087022 190.722645,199 188.368805,199 C185.405134,199 183,201.317814 183,204.176341 C183,206.263363 184.901309,206.251274 185.685543,208.059147 C186.006987,208.802078 185.685543,209.794485 185.685543,210.647317 C185.685543,211.940853 187.028314,211.940853 187.028314,213.235488 C187.028314,214.48836 184.342771,214.471875 184.342771,215.823659 C184.342771,218.683285 186.747905,221 189.711577,221 C191.745112,221 192.865607,219.362474 194.405577,218.289839 C197.238163,216.314917 200.450328,216.725947 200.450328,213.235488" id="Fill-22" fill="#0C0C92"></path>
                <polygon id="Fill-24" fill="#FF5E99" points="201.708927 266 195.249177 266 186.208379 266 175.874314 266 172 315.351509 174.583242 366 181.040798 366 183.625137 316.649594 188.791621 285.481207 190.082693 317.948782 196.541347 366 203 366"></polygon>
                <path d="M175.550529,365 L182,365 L182,372 L162.596819,372 C161.968083,372 161.767632,371.234112 162.330647,370.979476 L175.550529,365 Z" id="Fill-26" fill="#183959"></path>
                <path d="M203.545643,365 L197,365 L197,372 L216.302309,372 C217.037137,372 217.271704,371.116207 216.613583,370.82293 L203.545643,365 Z" id="Fill-28" fill="#183959"></path>
                <path d="M221.131197,202 L215.191072,217.325521 L198.006006,223.720303 C197.460518,223.882265 193.752732,223.737695 193.185337,223.694215 L177.194211,222.63331 C176.754972,222.6007 172.14023,224.687727 171.717422,224.807296 L161.855917,227.743266 L151.008591,230.770542 L137.290331,217.360304 L136,219.920174 L146.319364,237.840348 L146.540627,237.840348 L146.524196,237.851218 L174.6957,237.840348 L175.986031,266 L201.783895,266 L200.493563,235.280478 L206.760104,231.325996 L206.768867,231.329257 L219.640415,223.745304 L225,202 L221.131197,202 Z" id="Fill-30" fill="#5821FF"></path>
                <polygon id="Fill-32" fill="#DFB494" points="312.333333 256 314 261.600452 310.665698 263 309 258.800226"></polygon>
                <polygon id="Fill-34" fill="#E5E5E5" points="494.476034 273 314.654958 273 309 233 499 233"></polygon>
                <path d="M401,124 C401.553,124 402,124.48836 402,125.09009 L402,243.90991 C402,244.51164 401.553,245 401,245 C400.448,245 400,244.51164 400,243.90991 L400,125.09009 C400,124.48836 400.448,124 401,124" id="Fill-36" fill="#284461"></path>
                <path d="M427.180973,411.774907 L424.772148,386.489818 L424.071718,374.411888 L404.298781,309.428728 C403.787686,307.443824 402.943886,307.574036 401.891051,305.816728 L403.093821,301 L388.643063,301 L383.825414,301 L378.011886,301 L375.012461,313 C374.554992,314.831714 371.787585,319.124518 372.013036,321 L381.417683,373.244362 L381.417683,415.386907 L385.029279,415.386907 L393.866743,405.448164 C394.10861,405.175705 393.852515,404.753338 393.499017,404.84197 L389.846928,405.754544 L391.129591,385.285089 L392.255752,372.040727 L391.050793,327.489818 L413.934079,376.856361 L415.137944,388.897088 L421.159459,419 L424.772148,419 L439.494324,419 C440.026213,419 440.196943,418.282196 439.720869,418.043657 L427.180973,411.774907 Z" id="Fill-38" fill="#0C0C92"></path>
                <polygon id="Fill-40" fill="#284461" points="424 374 424.001 374.024 424.012 374.058"></polygon>
                <polygon id="Fill-42" fill="#4057FF" points="404 301 376 301 378.435023 283 402.783042 283"></polygon>
                <path d="M378,249.026001 C378,243.517244 382.476883,239.052001 388.001136,239.052001 C392.659775,239.052001 393.140293,235.997372 394.251278,240.298326 C394.455754,241.095974 398,248.16377 398,249.026001 C398,254.534757 393.523117,259 388.001136,259 C382.476883,259 378,254.534757 378,249.026001" id="Fill-44" fill="#D1A688"></path>
                <polygon id="Fill-46" fill="#4057FF" points="402.584157 285 378.415843 285 376 267 405 267"></polygon>
                <polygon id="Fill-48" fill="#4057FF" points="404 267 386 267 387.565976 258 403.217012 258"></polygon>
                <polygon id="Fill-50" fill="#4057FF" points="369.737421 267 354 252.272626 355.211163 247.364245 377 240 377 247.364245 364.283337 250.628692 377 258.408939"></polygon>
                <path d="M372,262.5 C372,257.805855 375.804998,254 380.500552,254 C385.195002,254 389,257.805855 389,262.5 C389,267.194145 385.195002,271 380.500552,271 C375.804998,271 372,267.194145 372,262.5" id="Fill-52" fill="#183959"></path>
                <path d="M372,256 C372,250.476883 376.476883,246 382.001136,246 C387.523117,246 392,250.476883 392,256 C392,261.523117 387.523117,266 382.001136,266 C376.476883,266 372,261.523117 372,256" id="Fill-54" fill="#183959"></path>
                <polygon id="Fill-56" fill="#4057FF" points="402.207876 272 402.207876 272 430 254.222342 430 249.481202 409.458425 240 405.833699 244.74114 419.124725 251.851772 401 258.963482"></polygon>
                <path d="M392.052077,239.388241 C392.841582,239.109586 393.239606,238.174815 392.847034,237.424333 C390.552671,233.040233 385.401259,230.888704 380.650051,232.572847 C376.691621,233.976114 374.142086,237.639708 373.906543,241.649678 L373.886914,241.657449 L368.249149,264.086414 C367.071434,268.768042 370.197831,273.439679 374.908691,274.035846 L382.281405,274.970618 C384.041434,275.193764 385.713135,274.126881 386.282364,272.417204 L391.743472,256.018736 C391.921219,255.48474 391.931034,254.906336 391.770734,254.365678 L388.753384,244.137591 C388.21796,242.325777 389.180851,240.406276 390.936519,239.783465 L392.052077,239.388241 Z" id="Fill-58" fill="#284461"></path>
                <path d="M402.415456,271.200654 L403.632594,274.066521 C404.153018,275.292257 404.119238,276.692475 403.539699,277.888768 L398.646869,288 L394,270 L402.415456,271.200654 Z" id="Fill-60" fill="#4057FF"></path>
                <polygon id="Fill-62" fill="#D1A688" points="410 238.754411 399.200654 234 398 236.161685 402.931298 239.700756 399.291167 240.680591 399.300981 241.60749 406.78735 243"></polygon>
                <polygon id="Fill-64" fill="#0088FF" points="421 337.812938 366 339 375.778469 301 403.88879 301"></polygon>
                <path d="M278.701559,286 L274.231534,286 L266.407908,286 L256.351436,286 L255.308646,297.637363 C255.259918,298.194505 255.257752,298.753846 255.303232,299.310989 L259.703954,352.907692 L253,393.731868 L258.586448,394.865934 L269.761509,351.773626 L268.644003,307.546154 L275.347957,344.969231 L278.701559,396 L284.288007,396 L286,343.356044 L278.701559,286 Z" id="Fill-66" fill="#4E1A9F"></path>
                <path d="M284.481557,395 L279,395 L279,401 L295.491896,401 C296.027861,401 296.196997,400.342905 295.719242,400.124541 L284.481557,395 Z" id="Fill-68" fill="#FF5E99"></path>
                <path d="M259.09312,395.042275 L253.182378,394 L252,398.169098 L252.623269,400.410191 L269.34383,403.985435 C269.885753,404.10158 270.236342,403.494596 269.810136,403.17646 L259.09312,395.042275 Z" id="Fill-70" fill="#FF5E99"></path>
                <polygon id="Fill-72" fill="#4057FF" points="272 257.134453 272.443169 258.169015 278.252518 264.875681 291.802559 275 311 262.625591 309.105861 258.851456 308.740383 258.125409 291.114278 267.351435 278.252518 250.250091 275.992901 248"></polygon>
                <polygon id="Fill-74" fill="#5857FF" points="279 287 256 287 258.3 271 277.85 271"></polygon>
                <polygon id="Fill-76" fill="#5857FF" points="277.685214 271 258 271 258 250 278.843168 250 280 254.666918"></polygon>
                <path d="M269,251.5 C269,249.014535 271.238372,247 274,247 C276.761628,247 279,249.014535 279,251.5 C279,253.985465 276.761628,256 274,256 C271.238372,256 269,253.985465 269,251.5" id="Fill-78" fill="#5857FF"></path>
                <polygon id="Fill-80" fill="#5857FF" points="273.332318 248 266.666574 248 266 241 274 241"></polygon>
                <path d="M266,251.5 C266,249.014535 268.015625,247 270.5,247 C272.985465,247 275,249.014535 275,251.5 C275,253.985465 272.985465,256 270.5,256 C268.015625,256 266,253.985465 266,251.5" id="Fill-82" fill="#5857FF"></path>
                <path d="M266.815067,233.392189 C264.11376,230.252568 264.468194,225.517421 267.607793,222.814977 C270.748511,220.113651 275.483625,220.468088 278.184933,223.608827 C280.88624,226.748447 280.531806,231.483595 277.392207,234.184921 C274.251489,236.886246 269.516375,236.531809 266.815067,233.392189" id="Fill-84" fill="#183959"></path>
                <path d="M265,235.23799 C265,230.950833 268.341645,227.47598 272.464453,227.47598 C275.922939,227.47598 279.082089,224.155025 279.927794,227.47598 C280.090258,228.1124 279.927794,234.548342 279.927794,235.23799 C279.927794,239.525147 276.586149,243 272.464453,243 C268.341645,243 265,239.525147 265,235.23799" id="Fill-86" fill="#DFB494"></path>
                <polyline id="Fill-88" fill="#DFB494" points="311 255.960271 314 253 315 254.000969 311 258"></polyline>
                <path d="M84,197.033898 C84,200.328134 81.5375687,203 78.4989118,203 C75.4623277,203 74,202.00565 74,197.033898 L74,192.062147 C74,192.062147 84,191.067797 84,197.033898" id="Fill-90" fill="#AF7D66"></path>
                <path d="M94,216.5 C94,222.851328 88.8513284,228 82.5010835,228 C76.1486716,228 71,221.805775 71,215.454447 C71,209.103119 76.1486716,205 82.5010835,205 C88.8513284,205 94,210.148672 94,216.5" id="Fill-92" fill="#FFD525"></path>
                <path d="M85,204.999482 C85,207.209094 83.2082902,209 81,209 C78.7917098,209 77,207.209094 77,204.999482 C77,202.790906 78.7917098,201 81,201 C83.2082902,201 85,202.790906 85,204.999482" id="Fill-94" fill="#AF7D66"></path>
                <path d="M88.3454633,202.431742 C85.0811936,207.693372 83.9609506,206.807318 77.8171522,206.998749 C76.3560134,207.044693 75.1721949,205.818438 75.1721949,204.360277 C75.1721949,202.903211 75.9526382,202.313602 77.2877223,201.721805 C79.2355421,200.858723 86.153207,200.243955 81.5176809,194.333646 C81.184458,193.905933 81.2085728,193.421338 80.6659893,193.313043 C79.8296435,193.145677 79.2662337,194.333646 78.345486,194.333646 C77.3896622,194.333646 76.8426943,193.140207 75.9603111,193.234282 C75.2182323,193.313043 74.9135087,194.333646 74.1155274,194.333646 C72.9470547,194.333646 72,193.387428 72,192.22243 C72,191.05634 72.9470547,190.111215 74.1155274,190.111215 C74.5375367,190.111215 74.8948745,190.599092 75.2609813,190.451416 C76.5993538,189.912127 76.840502,188 78.345486,188 C79.7123578,188 80.047773,189.823521 81.3138011,190.076211 C82.1501469,190.242483 82.7135568,189.055608 83.6343044,189.055608 C85.0494059,189.055608 85.6478919,190.363905 86.6431763,191.265273 C88.0878732,192.57357 90.2308038,193.378676 89.9797904,195.389253 C89.7145274,197.516877 89.4766676,200.608221 88.3454633,202.431742" id="Fill-96" fill="#183959"></path>
                <polygon id="Fill-98" fill="#5857FF" points="75.9997927 325 70.0002073 325 68 256.897719 68 242 78 242"></polygon>
                <polygon id="Fill-100" fill="#5857FF" points="97 326 90.4598007 326 80 244.984004 90.8528904 244"></polygon>
                <polygon id="Fill-102" fill="#5857FF" points="68 257 91 257 91 242 68 242"></polygon>
                <polygon id="Fill-104" fill="#FFD525" points="68 242 91 242 91 221 68 221"></polygon>
                <path d="M70.5186025,325 L76,325 L76,331 L59.5080839,331 C58.9728977,331 58.8024562,330.341969 59.2808286,330.124352 L70.5186025,325 Z" id="Fill-105" fill="#4E1A9F"></path>
                <path d="M91.4356603,326 L97,326 L97,332 L80.5941353,332 C79.9679308,332 79.7695751,331.242487 80.3277389,330.990674 L91.4356603,326 Z" id="Fill-106" fill="#4E1A9F"></path>
                <polygon id="Fill-107" fill="#DEE1E5" points="65 248.853496 67.0010363 209.146504 74 207 71 251 65 251"></polygon>
                <polygon id="Fill-108" fill="#DEE1E5" points="66.9523293 210 64.8559021 215.237527 56.4767075 222.571584 46 217.332971 46 220.476139 55.4290367 232 68 226.761388"></polygon>
                <path d="M74.7813558,199.999793 C74.7813558,200.552239 74.3826274,201 73.8906779,201 C73.3987283,201 73,200.552239 73,199.999793 C73,199.447347 74.2894062,196 74.7813558,196 C75.2733053,196 74.7813558,199.447347 74.7813558,199.999793" id="Fill-109" fill="#AF7D66"></path>
                <polygon id="Fill-110" fill="#284461" points="44 198.444321 47.2727273 226 68 226 65.8181818 195"></polygon>
                <polygon id="Fill-111" fill="#AF7D66" points="103.540644 251 104 260.73221 101.919258 261 100.624113 256.14243 98.7321331 258.641097 98 258.353035 99.1914894 252.184253"></polygon>
                <polyline id="Fill-112" fill="#DEE1E5" points="86 206 94.4705237 209.439331 102.941047 228.537075 104 254 97.6473816 254 96.5884289 254 95.5294763 234.902256 92.3526184 229.597022 92.3526184 249.755813 88.1179053 249.755813 86 206.256191"></polyline>
                <polygon id="Fill-113" fill="#AF7D66" points="45.9514748 220 49 217.476 48.8058991 215 45.9514748 216 45 217"></polygon>
                <polygon id="Fill-114" fill="#5857FF" points="260 84 438 84 438 74 260 74"></polygon>
                <polygon id="Fill-115" fill="#5857FF" points="435.856236 122 259 100.934359 260.143764 91 437 112.066753"></polygon>
                <polygon id="Fill-116" fill="#5857FF" points="260 55 438 55 438 45 260 45"></polygon>
                <polygon id="Fill-117" fill="#DFB494" points="286 279.8313 295.480119 282 296 280.04982 291.315756 277.769799 294.01616 276.731833 293.815224 276 287.063151 276.739048"></polygon>
                <polygon id="Fill-118" fill="#5897FF" points="259 253.12 259 254.24 259 255.36 266.807983 273.278915 286.884574 280 288 275.518915 271.269688 267.68 265.691476 252"></polygon>
                <path d="M254.270434,238.374218 C249.90185,240.624185 249.792636,249.199693 254.652144,253.016774 C257.606345,255.337826 261.801915,255.652326 265.070784,253.797638 C270.434193,250.756036 271.371709,245.602331 268.826252,240.532635 C267.710317,238.310672 266.927432,236.633698 267.710317,234.976111 C267.906038,234.560368 269.480458,233.673953 269.844867,233.362684 C271.318723,232.099299 270.556384,229.357118 272.162163,228.543942 C274.472971,227.375338 277.365535,229.652231 279.076203,227.295636 C280.143479,225.827611 280.300272,223.813519 279.471971,222.200091 C278.168965,219.661474 275.765163,218.798753 273.289993,218.304385 C270.698039,217.786322 268.136362,217.775552 266.107782,219.513918 C265.405997,220.115991 265.323816,221.147809 264.652308,221.690645 C263.662889,222.490896 262.130641,221.637869 262.130641,223.860909 C262.130641,226.078565 258.782835,223.860909 258.812031,228.855211 C258.816356,229.608072 255.435029,229.419587 255.435029,232.753071 C255.435029,234.928721 256.550964,237.199152 254.270434,238.374218" id="Fill-119" fill="#4E1A9F"></path>
                <polygon id="Fill-120" fill="#EABFA2" points="225.209227 204 228 193.630855 225.755365 193 222.977468 198.087842 221.854077 195.084974 221 195.284745 221.657725 202.738291"></polygon>
                <polygon id="Fill-121" fill="#EABFA2" points="136.39158 221 134 211.573044 135.923327 211 138.304638 215.625974 139.267842 212.896276 140 213.077686 139.436249 219.852844"></polygon>
                <path d="M141,21.5 C141,22.8805817 139.880582,24 138.5,24 C137.119418,24 136,22.8805817 136,21.5 C136,20.1194183 137.119418,19 138.5,19 C139.880582,19 141,20.1194183 141,21.5" id="Fill-122" fill="#FFD525"></path>
                <path d="M150,21.5 C150,22.8805817 148.880352,24 147.500512,24 C146.119648,24 145,22.8805817 145,21.5 C145,20.1194183 146.119648,19 147.500512,19 C148.880352,19 150,20.1194183 150,21.5" id="Fill-123" fill="#FFD525"></path>
                <path d="M159,21.5 C159,22.8805817 157.880352,24 156.500512,24 C155.119648,24 154,22.8805817 154,21.5 C154,20.1194183 155.119648,19 156.500512,19 C157.880352,19 159,20.1194183 159,21.5" id="Fill-124" fill="#FFD525"></path>
                <polygon id="Fill-125" fill="#C6C6C6" points="209.557778 48 211 68.8095238 141 71 141 48"></polygon>
                <polygon id="Fill-126" fill="#C6C6C6" points="210.890625 73 212 96.76 141 100 141 75.16"></polygon>
                <polygon id="Fill-127" fill="#C6C6C6" points="211.892308 102 213 125.833333 141 128 141 105.25"></polygon>
                <polygon id="Fill-128" fill="#C6C6C6" points="212.787879 133 215 157.84 142 160 142 135.16"></polygon>
                <path d="M357.707156,217 C371.675917,217 383,205.807273 383,191.999454 C383,178.192727 371.675917,167 357.707156,167 L332.292844,167 C318.324083,167 307,178.192727 307,191.999454 C307,205.807273 318.324083,217 332.292844,217 L357.707156,217 Z" id="Fill-129" fill="#4057FF"></path>
                <polygon id="Fill-130" fill="#4057FF" points="355 213.99922 372 211 371.660175 231"></polygon>
                <path d="M50.7071558,165 C64.6759172,165 76,153.807273 76,139.999454 C76,126.192727 64.6759172,115 50.7071558,115 L25.2928442,115 C11.3240828,115 0,126.192727 0,139.999454 C0,153.807273 11.3240828,165 25.2928442,165 L50.7071558,165 Z" id="Fill-131" fill="#8757FF"></path>
                <polygon id="Fill-132" fill="#8757FF" points="48 161 65 161 65 178"></polygon>
                <path d="M163.707156,188 C177.675917,188 189,176.807273 189,162.999454 C189,149.192727 177.675917,138 163.707156,138 L138.292844,138 C124.324083,138 113,149.192727 113,162.999454 C113,176.807273 124.324083,188 138.292844,188 L163.707156,188 Z" id="Fill-133" fill="#5821FF"></path>
                <polygon id="Fill-134" fill="#5821FF" points="161 184 178 184 178 201"></polygon>
                <g id="Group-14" transform="translate(62.000000, 54.000000)">
                    <path d="M17.5006517,0 L17.5006517,0.599824227 C17.5006517,10.3749817 9.66465572,18.299253 0,18.299253 C9.66465572,18.299253 17.5006517,26.2248425 17.5006517,36 L17.5006517,35.4001758 C17.5006517,25.6237 25.3353443,17.6994287 35,17.6994287 C25.3353443,17.6994287 17.5006517,9.77515746 17.5006517,0" id="Fill-12" fill="#FFD525"></path>
                    <path d="M31,30 L31,30.2662187 C31,34.6114711 27.4178327,38.1337493 23,38.1337493 C27.4178327,38.1337493 31,41.6547476 31,46 L31,45.7337813 C31,41.3885289 34.5821673,37.8662507 39,37.8662507 C34.5821673,37.8662507 31,34.3452524 31,30" id="Fill-14" fill="#FFD525"></path>
                    <path d="M18,18.5 C18,20.4326778 16.4328753,22 14.4995588,22 C12.5671247,22 11,20.4326778 11,18.5 C11,16.5673222 12.5671247,15 14.4995588,15 C16.4328753,15 18,16.5673222 18,18.5" id="Fill-34" fill="#FFE161"></path>
                </g>
                <g id="Group-24" transform="translate(482.000000, 147.000000)">
                    <path d="M17.5565174,34 L17.5565174,34.2563184 C17.5565174,38.4291542 14.1735323,41.8121393 10,41.8121393 C14.1735323,41.8121393 17.5565174,45.1951244 17.5565174,49.3686567 L17.5565174,49.1123383 C17.5565174,44.9395025 20.9395025,41.5565174 25.1130348,41.5565174 C20.9395025,41.5565174 17.5565174,38.1735323 17.5565174,34" id="Fill-20" fill="#4057FF"></path>
                    <g id="Group-23">
                        <path d="M12.8243483,-6.96517418e-05 L12.8243483,0.433164179 C12.8243483,7.49097512 7.10245771,13.2128657 0.0439502488,13.2128657 C7.10245771,13.2128657 12.8243483,18.9347562 12.8243483,25.9925672 L12.8243483,25.5600299 C12.8243483,18.5015224 18.5462388,12.7796318 25.6047463,12.7796318 C18.5462388,12.7796318 12.8243483,7.05774129 12.8243483,-6.96517418e-05" id="Fill-19" fill="#009CFF"></path>
                        <path d="M11.5,15 C10.1192778,15 9,13.8807222 9,12.5 C9,11.1192778 10.1192778,10 11.5,10 C12.8807222,10 14,11.1192778 14,12.5 C14,13.8807222 12.8807222,15 11.5,15 Z" id="Fill-7" fill="#49A8FB"></path>
                    </g>
                </g>
                <g id="Group-57" transform="translate(16.000000, 126.000000)">
                    <path d="M157.820235,40.7379327 C156.132539,38.3316548 154.444844,35.925377 152.756051,33.5190991 C152.334949,32.9183578 151.457655,32.8399523 151.051906,33.5190991 C148.909113,37.1080863 146.723552,40.6330239 144.297832,44.0232364 C141.815088,38.1417146 139.26216,32.2944262 136.618212,26.4846842 C136.289227,25.7613652 135.283628,25.9203849 134.914067,26.4846842 C133.394154,28.8103479 132.49054,31.417609 131.584733,34.0303917 C130.690989,36.608941 130.063723,40.5568269 128.135868,42.4970886 C125.456829,45.1915898 123.61451,43.3429853 121.02978,41.5109454 C118.018465,39.3752219 114.740673,36.9192503 112.846812,33.6626586 C112.20529,32.5594591 110.498952,33.558854 111.142667,34.6653664 C113.125353,38.0754564 116.39218,40.5943732 119.536185,42.8659261 C121.296258,44.1402926 123.783389,46.4615391 126.171824,46.2230095 C131.759096,45.6653361 133.520265,34.6896611 135.720082,29.2940329 C138.297135,35.002179 140.807295,40.7379327 143.230822,46.5145457 C143.553228,47.2831411 144.551151,47.0280469 144.936064,46.5145457 C147.502152,43.0856825 149.762282,39.4900695 151.967582,35.8281982 C153.350418,37.7993804 154.733254,39.7705626 156.11609,41.7417448 C156.842052,42.7775818 158.556066,41.785917 157.820235,40.7379327" id="Fill-1" fill="#F3F5FF"></path>
                    <path d="M354.556302,63.5028588 C350.274055,66.2893545 345.345637,69.3898669 340.335079,70.6287858 C332.369661,72.598624 335.135051,61.8470373 330.467291,58.7015123 C325.641823,55.4498861 321.619139,64.2198456 319.445159,70.2869042 C318.788036,68.4896144 317.536218,66.948468 315.548423,65.9957008 C310.727335,63.6882679 304.972038,66.2904263 300.513463,68.2206104 C299.356928,68.7221797 300.357944,70.3844316 301.507908,69.8860775 C306.925882,67.5411342 319.72115,63.9122593 317.961157,74.7967404 C317.767306,75.9981488 319.484586,76.5243678 319.862431,75.3100987 C321.158058,71.1507179 322.705581,66.7952107 325.123791,63.1288253 C330.418007,55.1015741 331.759632,68.7918421 334.439596,71.5193927 C339.410727,76.5811694 351.235644,67.9762562 355.550748,65.1693976 C356.602143,64.4845627 355.61646,62.8126652 354.556302,63.5028588" id="Fill-3" fill="#F3F5FF"></path>
                    <g id="Group-7">
                        <mask id="mask-16" fill="white">
                            <use xlink:href="#path-15"></use>
                        </mask>
                        <g id="Clip-6"></g>
                        <path d="M31.6277578,11.5804929 C34.9586689,14.8742429 35.68278,18.6042071 35.5978467,23.3582786 C35.5793356,24.4366357 36.08458,26.9531714 36.0682467,28.39135 C35.9158022,27.6429214 34.9009578,27.3849571 33.7783133,26.6210286 C32.0088689,25.4175643 30.3004022,24.1144571 28.5962911,22.8179929 C27.4758244,21.9666 26.3695133,21.0986 25.2588467,20.2339214 C27.7382467,17.3586714 29.8975133,14.0671357 31.6277578,11.5804929 M48.6568911,18.4481 C43.4683356,10.0725643 34.4860911,-2.4924 23.05058,1.53317143 C18.4652689,3.14738571 14.5724911,7.24492143 12.2684022,11.5450643 C12.08438,11.7410286 11.9558911,12.0012071 11.9787578,12.2370286 C11.9809356,12.2613857 11.9831133,12.2835286 11.9852911,12.3078857 C12.0430022,12.8847071 12.5700244,13.3142786 13.07418,13.3032071 C13.1155578,13.3596714 13.15258,13.4139214 13.2320689,13.4892071 C13.4258911,13.6729929 13.7819578,13.7659929 13.9387578,13.9829929 C14.3939133,14.6162786 15.5601133,15.1919929 16.1884022,15.6736 C18.2398689,17.2402071 20.2619356,18.8444571 22.2981578,20.4343143 C20.3348911,22.3817786 18.2148244,23.8919214 15.99458,24.3624571 C11.4201578,25.3323143 3.91118,17.6254929 1.83466889,14.0195286 C1.19766889,12.9134929 -0.497731111,13.91435 0.141446667,15.0248143 C2.53809111,19.1865643 10.1167578,26.8867429 15.3260022,26.6166 C18.4195356,26.4560643 21.3127133,24.4089571 23.9053578,21.7230286 C27.3702022,24.57835 31.0702467,28.0282071 35.0381578,29.7830286 C37.2333578,30.7528857 37.6732689,30.4506357 37.7516689,28.2950286 C38.0075578,21.2757429 37.8159133,14.2354214 32.1700244,9.38835 C31.6506244,8.94438571 31.0234244,9.04292143 30.6303356,9.59095714 C28.8097133,12.1196714 26.4174244,15.8762071 23.6538244,18.9906 C21.7003578,17.4627429 19.7490689,15.9315643 17.7836244,14.4192071 C17.0224911,13.8335286 15.6929578,12.4695286 14.4135133,11.7399214 C16.2090911,8.70967143 18.8137133,5.91302857 21.8321133,4.26006429 C32.69378,-1.69082857 42.0320911,11.4908143 46.9636689,19.4533857 C47.6344244,20.5361714 49.3309133,19.5375286 48.6568911,18.4481" id="Fill-5" fill="#FFFFFF" mask="url(#mask-16)"></path>
                    </g>
                </g>
            </g>
        </g>
    </g>
</svg>