<?xml version="1.0" encoding="UTF-8"?>
<svg width="219px" height="219px" viewBox="0 0 219 219" version="1.1" xmlns="http://www.w3.org/2000/svg" xmlns:xlink="http://www.w3.org/1999/xlink">
    <!-- Generator: sketchtool 51.2 (57519) - http://www.bohemiancoding.com/sketch -->
    <title>C9C9411A-0BAC-4421-AC86-3734B45EE41D</title>
    <desc>Created with sketchtool.</desc>
    <defs>
        <path d="M10.1037037,1.87357143 C9.48814815,2.64 11.1525926,3.575 10.5814815,4.285 C9.99185185,5.01928571 9.1637037,4.54785714 8.57333333,5.28214286 C8.18518519,5.76571429 7.15259259,7.07214286 6.61481481,7.38071429 C5.30814815,8.13142857 2.01481481,7.755 0.976296296,8.86785714 C-0.408888889,10.3528571 2.28074074,13.2014286 4.11185185,14.2435714 C4.88814815,14.6864286 5.85851852,14.3578571 6.83333333,14.03 C7.68074074,13.745 8.53111111,13.46 9.26,13.6814286 C9.84814815,13.8614286 10.1,13.6414286 10.657037,13.96 C11.8014815,14.6114286 13.3888889,14.3178571 14.202963,13.3035714 C14.4955556,12.9392857 15.0874074,12.2021429 16.5059259,11.94 C17.8125926,11.6978571 18.0362963,10.0342857 18.8651852,9.00285714 C20.4548148,7.02285714 18.2866667,6.12642857 17.4377778,4.01071429 C16.977037,2.86071429 17.0318519,1.53857143 15.777037,0.823571429 C15.1177778,0.447857143 14.3674074,0.269285714 13.6148148,0.269285714 C12.2785185,0.269285714 10.9377778,0.835714286 10.1037037,1.87357143 Z" id="path-1"></path>
    </defs>
    <g id="Landing-page" stroke="none" stroke-width="1" fill="none" fill-rule="evenodd">
        <g id="Landing-Page" transform="translate(-530.000000, -2921.000000)">
            <g id="Group-39" transform="translate(530.000000, 2921.000000)">
                <rect id="Rectangle" fill="#FFFFFF" x="0" y="0" width="219" height="219"></rect>
                <g id="Group-11" transform="translate(35.000000, 29.000000)">
                    <path d="M98.6468363,21.6256431 L98.6468363,21.8666452 C98.6468363,25.7901347 95.4646655,28.9709707 91.5388743,28.9709707 C95.4646655,28.9709707 98.6468363,32.1518067 98.6468363,36.0759511 L98.6468363,35.8349489 C98.6468363,31.9114594 101.829007,28.7306234 105.754798,28.7306234 C101.829007,28.7306234 98.6468363,25.5497874 98.6468363,21.6256431" id="Fill-20" fill="#4057FF"></path>
                    <g id="Group-14" transform="translate(112.232953, 0.000000)">
                        <path d="M16.4618119,0 L16.4618119,0.563981941 C16.4618119,9.75502829 9.09096115,17.2057875 0,17.2057875 C9.09096115,17.2057875 16.4618119,24.6577863 16.4618119,33.8488326 L16.4618119,33.2848507 C16.4618119,24.0925648 23.8314367,16.6418056 32.9223978,16.6418056 C23.8314367,16.6418056 16.4618119,9.19104635 16.4618119,0" id="Fill-12" fill="#FFD525"></path>
                        <path d="M29.1598381,28.2073605 L29.1598381,28.4576714 C29.1598381,32.5432747 25.7903085,35.8550805 21.6347186,35.8550805 C25.7903085,35.8550805 29.1598381,39.1656828 29.1598381,43.2512861 L29.1598381,43.0009752 C29.1598381,38.9153719 32.5293677,35.6035662 36.6849576,35.6035662 C32.5293677,35.6035662 29.1598381,32.2929639 29.1598381,28.2073605" id="Fill-14" fill="#FFD525"></path>
                        <path d="M16.9315189,17.394539 C16.9315189,19.2117303 15.4574188,20.6853977 13.6388641,20.6853977 C11.8211394,20.6853977 10.3470393,19.2117303 10.3470393,17.394539 C10.3470393,15.5773477 11.8211394,14.1036803 13.6388641,14.1036803 C15.4574188,14.1036803 16.9315189,15.5773477 16.9315189,17.394539" id="Fill-34" fill="#FFE161"></path>
                    </g>
                    <g id="Group-38" transform="translate(49.000000, 65.000000)">
                        <polygon id="Fill-17" fill="#F8F8F8" points="81 0 81 66 0 66 2.81025203e-16 0"></polygon>
                        <polygon id="Fill-125" fill="#E5E5E5" points="73.5577778 7 75 27.8095238 5 30 5 7"></polygon>
                        <polygon id="Fill-125" fill="#CBCBCB" points="70 11 70 13 10 13 10 11"></polygon>
                        <polygon id="Fill-125" fill="#CBCBCB" points="67 16 67 18 10 18 10 16"></polygon>
                        <polygon id="Fill-125" fill="#CBCBCB" points="42 21 42 23 10 23 10 21"></polygon>
                        <polygon id="Fill-126" fill="#E5E5E5" points="74.890625 34 76 56 5 59 5 36"></polygon>
                    </g>
                    <g id="Group-56" transform="translate(0.000000, 15.000000)">
                        <g id="Group-4">
                            <path d="M71.5801959,35.9606939 C71.5801959,55.5439592 55.7049306,71.4199592 36.1209306,71.4199592 C16.5376653,71.4199592 0.6624,55.5439592 0.6624,35.9606939 C0.6624,16.3774286 16.5376653,0.501428571 36.1209306,0.501428571 C55.7049306,0.501428571 71.5801959,16.3774286 71.5801959,35.9606939" id="Fill-5" fill="#FFD525"></path>
                            <path d="M33.3675184,22.9718939 C24.4558395,20.9906313 20,20 20,20 C20,20 13.9705306,35.6440816 13,41 C12.3182041,44.760898 16.1543755,49.0425061 23.2867837,48.354098 L33.3675184,48.354098 L33.3675184,22.9718939 Z" id="Fill-48" fill="#0088FF"></path>
                            <path d="M53,21 C51,17 47.536019,17.657298 42.6080571,22.9718939 L34.882751,44.5358939 C34.1921388,46.4659347 36.1728735,48.354098 38.8890367,48.354098 L47.2513224,48.354098 C50.2099347,48.354098 55,48 57,44 C59,40 56,27 53,21 Z" id="Fill-49" fill="#0088FF"></path>
                            <polygon id="Fill-50" fill="#EABFA2" points="21.1599184 33.280898 49.7057143 33.280898 49.7057143 18.0587755 21.1599184 18.0587755"></polygon>
                            <path d="M36.121151,71.4196653 C44.8471102,71.4196653 52.8317633,68.261951 59.0090694,63.0346041 C54.4517633,54.6980327 45.6031102,49.0423592 35.4327429,49.0423592 C25.5907837,49.0423592 16.9897224,54.3409714 12.3148653,62.2381959 C18.6075184,67.9430939 26.958049,71.4196653 36.121151,71.4196653" id="Fill-51" fill="#5857FF"></path>
                            <path d="M49.7058612,32.8342776 C49.7058612,40.7168082 43.3162286,47.1071755 35.4329633,47.1071755 C27.5504327,47.1071755 21.1600653,40.7168082 21.1600653,32.8342776 C21.1600653,24.9517469 27.5504327,18.5613796 35.4329633,18.5613796 C43.3162286,18.5613796 49.7058612,24.9517469 49.7058612,32.8342776" id="Fill-52" fill="#EABFA2"></path>
                            <path d="M40.0292816,49.2353633 C40.0292816,51.7737306 37.9714041,53.8316082 35.4330367,53.8316082 C32.8946694,53.8316082 30.8360571,51.7737306 30.8360571,49.2353633 C30.8360571,46.6969959 32.8946694,44.6391184 35.4330367,44.6391184 C37.9714041,44.6391184 40.0292816,46.6969959 40.0292816,49.2353633" id="Fill-53" fill="#EABFA2"></path>
                            <polygon id="Fill-54" fill="#EABFA2" points="30.8358367 49.1576327 40.0290612 49.1576327 40.0290612 43.2367347 30.8358367 43.2367347"></polygon>
                            <path d="M29.9716898,32.5021224 C30.3045061,32.8724082 30.8746286,32.9025306 31.2441796,32.5697143 C31.6144653,32.236898 31.6445878,31.6667755 31.3117714,31.2964898 C30.9789551,30.9262041 30.4088327,30.8960816 30.0392816,31.2296327 C29.6689959,31.562449 29.6388735,32.1325714 29.9716898,32.5021224" id="Fill-56" fill="#0C0C45"></path>
                            <path d="M39.6109469,32.5021224 C39.9437633,32.8724082 40.5138857,32.9025306 40.8834367,32.5697143 C41.2537224,32.236898 41.2838449,31.6667755 40.9510286,31.2964898 C40.6182122,30.9262041 40.0488245,30.8960816 39.6785388,31.2296327 C39.3082531,31.562449 39.2781306,32.1325714 39.6109469,32.5021224" id="Fill-57" fill="#0C0C45"></path>
                        </g>
                        <g id="Group-15" transform="translate(17.000000, 13.000000)">
                            <mask id="mask-2" fill="white">
                                <use xlink:href="#path-1"></use>
                            </mask>
                            <g id="Clip-14"></g>
                        </g>
                        <circle id="Oval-2" fill="#0088FF" cx="24.5" cy="20.5" r="4.5"></circle>
                        <circle id="Oval-2" fill="#0088FF" cx="48.5" cy="20.5" r="4.5"></circle>
                        <circle id="Oval-2" fill="#0088FF" cx="32.5" cy="20.5" r="4.5"></circle>
                        <ellipse id="Oval-2" fill="#0088FF" cx="35" cy="16.5" rx="12" ry="5.5"></ellipse>
                        <ellipse id="Oval-2" fill="#0088FF" cx="38" cy="16.5" rx="12" ry="5.5"></ellipse>
                        <circle id="Oval-2" fill="#0088FF" cx="40.5" cy="20.5" r="4.5"></circle>
                        <circle id="Oval-2" fill="#0088FF" cx="48.5" cy="20.5" r="4.5"></circle>
                    </g>
                    <path d="M64.5844796,36.2908587 C64.5844796,38.10805 63.1103795,39.5817175 61.2918248,39.5817175 C59.4741001,39.5817175 58,38.10805 58,36.2908587 C58,34.4736674 59.4741001,33 61.2918248,33 C63.1103795,33 64.5844796,34.4736674 64.5844796,36.2908587" id="Fill-34" fill="#FFE161"></path>
                    <g id="Group-23" transform="translate(8.000000, 128.000000)">
                        <path d="M16.063275,0 L16.063275,0.542886807 C16.063275,9.38705404 8.87161309,16.5571748 0,16.5571748 C8.87161309,16.5571748 16.063275,23.7272956 16.063275,32.5714628 L16.063275,32.0294488 C16.063275,23.1844088 23.2549369,16.014288 32.1265499,16.014288 C23.2549369,16.014288 16.063275,8.84416723 16.063275,0" id="Fill-19" fill="#009CFF"></path>
                        <path d="M15.1421703,18.2655172 C13.4067846,18.2655172 12,16.8629464 12,15.1327586 C12,13.4025708 13.4067846,12 15.1421703,12 C16.8775561,12 18.2843407,13.4025708 18.2843407,15.1327586 C18.2843407,16.8629464 16.8775561,18.2655172 15.1421703,18.2655172 Z" id="Fill-7" fill="#49A8FB"></path>
                    </g>
                    <path d="M80.9640733,105.107783 L82.603363,108.419165 C82.6313826,108.476189 82.6862663,108.515644 82.7492381,108.52486 L86.4146034,109.055925 C86.5734773,109.078965 86.6370269,109.273651 86.5220599,109.385681 L83.8697324,111.962961 C83.8240923,112.007601 83.8032942,112.071536 83.8139821,112.134031 L84.4399453,115.77373 C84.4673871,115.931552 84.3012917,116.051934 84.1591718,115.977343 L80.8805922,114.258869 C80.8242642,114.229493 80.7566706,114.229493 80.7003426,114.258869 L77.421763,115.977343 C77.2796431,116.051934 77.1135477,115.931552 77.1407007,115.77373 L77.7669527,112.134031 C77.7776406,112.071536 77.7565537,112.007601 77.7109135,111.962961 L75.0588749,109.385681 C74.9436191,109.273651 75.0071686,109.078965 75.1663314,109.055925 L78.8314078,108.52486 C78.8946685,108.515644 78.9489745,108.476189 78.9772829,108.419165 L80.6165727,105.107783 C80.6876327,104.964072 80.8930133,104.964072 80.9640733,105.107783" id="Fill-17" fill="#CBCBCB"></path>
                    <path d="M65.9640733,105.107783 L67.603363,108.419165 C67.6313826,108.476189 67.6862663,108.515644 67.7492381,108.52486 L71.4146034,109.055925 C71.5734773,109.078965 71.6370269,109.273651 71.5220599,109.385681 L68.8697324,111.962961 C68.8240923,112.007601 68.8032942,112.071536 68.8139821,112.134031 L69.4399453,115.77373 C69.4673871,115.931552 69.3012917,116.051934 69.1591718,115.977343 L65.8805922,114.258869 C65.8242642,114.229493 65.7566706,114.229493 65.7003426,114.258869 L62.421763,115.977343 C62.2796431,116.051934 62.1135477,115.931552 62.1407007,115.77373 L62.7669527,112.134031 C62.7776406,112.071536 62.7565537,112.007601 62.7109135,111.962961 L60.0588749,109.385681 C59.9436191,109.273651 60.0071686,109.078965 60.1663314,109.055925 L63.8314078,108.52486 C63.8946685,108.515644 63.9489745,108.476189 63.9772829,108.419165 L65.6165727,105.107783 C65.6876327,104.964072 65.8930133,104.964072 65.9640733,105.107783" id="Fill-17" fill="#CBCBCB"></path>
                    <path d="M95.9640733,105.107783 L97.603363,108.419165 C97.6313826,108.476189 97.6862663,108.515644 97.7492381,108.52486 L101.414603,109.055925 C101.573477,109.078965 101.637027,109.273651 101.52206,109.385681 L98.8697324,111.962961 C98.8240923,112.007601 98.8032942,112.071536 98.8139821,112.134031 L99.4399453,115.77373 C99.4673871,115.931552 99.3012917,116.051934 99.1591718,115.977343 L95.8805922,114.258869 C95.8242642,114.229493 95.7566706,114.229493 95.7003426,114.258869 L92.421763,115.977343 C92.2796431,116.051934 92.1135477,115.931552 92.1407007,115.77373 L92.7669527,112.134031 C92.7776406,112.071536 92.7565537,112.007601 92.7109135,111.962961 L90.0588749,109.385681 C89.9436191,109.273651 90.0071686,109.078965 90.1663314,109.055925 L93.8314078,108.52486 C93.8946685,108.515644 93.9489745,108.476189 93.9772829,108.419165 L95.6165727,105.107783 C95.6876327,104.964072 95.8930133,104.964072 95.9640733,105.107783" id="Fill-17" fill="#CBCBCB"></path>
                    <path d="M110.964073,105.107783 L112.603363,108.419165 C112.631383,108.476189 112.686266,108.515644 112.749238,108.52486 L116.414603,109.055925 C116.573477,109.078965 116.637027,109.273651 116.52206,109.385681 L113.869732,111.962961 C113.824092,112.007601 113.803294,112.071536 113.813982,112.134031 L114.439945,115.77373 C114.467387,115.931552 114.301292,116.051934 114.159172,115.977343 L110.880592,114.258869 C110.824264,114.229493 110.756671,114.229493 110.700343,114.258869 L107.421763,115.977343 C107.279643,116.051934 107.113548,115.931552 107.140701,115.77373 L107.766953,112.134031 C107.777641,112.071536 107.756554,112.007601 107.710914,111.962961 L105.058875,109.385681 C104.943619,109.273651 105.007169,109.078965 105.166331,109.055925 L108.831408,108.52486 C108.894669,108.515644 108.948974,108.476189 108.977283,108.419165 L110.616573,105.107783 C110.687633,104.964072 110.893013,104.964072 110.964073,105.107783" id="Fill-17" fill="#CBCBCB"></path>
                </g>
            </g>
        </g>
    </g>
</svg>