<?xml version="1.0" encoding="UTF-8"?>
<svg width="219px" height="219px" viewBox="0 0 219 219" version="1.1" xmlns="http://www.w3.org/2000/svg" xmlns:xlink="http://www.w3.org/1999/xlink">
    <!-- Generator: sketchtool 51.2 (57519) - http://www.bohemiancoding.com/sketch -->
    <title>24443830-6BF1-4BAD-9C39-E33BBB7BF5D1</title>
    <desc>Created with sketchtool.</desc>
    <defs></defs>
    <g id="Landing-page" stroke="none" stroke-width="1" fill="none" fill-rule="evenodd">
        <g id="Landing-Page" transform="translate(-885.000000, -2921.000000)">
            <g id="Group-41" transform="translate(885.000000, 2921.000000)">
                <rect id="Rectangle" fill="#FFFFFF" x="0" y="0" width="219" height="219"></rect>
                <g id="Group-34" transform="translate(39.000000, 49.000000)">
                    <g id="Group-25">
                        <polyline id="Fill-13" fill="#E1E1E1" transform="translate(30.152092, 93.968014) rotate(90.000000) translate(-30.152092, -93.968014) " points="11.0530198 70.8730789 32.3706005 123.325879 38.766619 115.924663 49.2511632 117.055535 28.1047836 64.6101485"></polyline>
                        <polyline id="Fill-14" fill="#E1E1E1" transform="translate(30.152092, 64.519738) rotate(90.000000) translate(-30.152092, -64.519738) " points="49.2511632 41.424803 27.9335825 93.8776032 21.537564 86.476387 11.0530198 87.6072594 32.1993994 35.1618727"></polyline>
                        <path d="M107.466661,89.2548693 L115.350708,81.6009254 C116.383328,80.5987757 116.383328,78.9462733 115.350708,77.9441235 L107.466661,70.2901797 C106.861706,69.7038513 106.586295,68.8587297 106.729076,68.0304567 L108.896495,55.4446152 C109.140778,54.0293399 108.164999,52.6929156 106.738549,52.4860158 L94.9121405,50.7748805 C94.0777889,50.6542451 93.3557669,50.1319411 92.9822373,49.3784755 L88.1892835,39.7054055 C87.5511703,38.4181788 85.9731429,37.9073318 84.6975933,38.575207 L73.8632034,44.2484393 C73.1161441,44.6393249 72.2235977,44.6393249 71.4765384,44.2484393 L60.6428252,38.575207 C59.3665989,37.9073318 57.7885715,38.4175049 57.151135,39.7054055 L52.3575045,49.3784755 C51.9839749,50.1319411 51.2619529,50.6542451 50.4269246,50.7748805 L38.6005158,52.4860158 C37.1747423,52.6929156 36.1996405,54.0293399 36.4432467,55.4446152 L38.6106661,68.0304567 C38.7527697,68.8587297 38.4773593,69.7038513 37.8730803,70.2901797 L29.9890334,77.9441235 C28.95709,78.9462733 28.95709,80.5987757 29.9890334,81.6009254 L37.8730803,89.2548693 C38.4773593,89.8418716 38.7527697,90.6869932 38.6106661,91.5152662 L36.4432467,104.100434 C36.1996405,105.515709 37.1747423,106.852807 38.6005158,107.059033 L50.4269246,108.770842 C51.2619529,108.891478 51.9839749,109.413782 52.3575045,110.167247 L57.151135,119.839644 C57.7885715,121.12687 59.3665989,121.637717 60.6428252,120.969842 L71.4765384,115.297284 C72.2235977,114.905724 73.1161441,114.905724 73.8632034,115.297284 L84.6975933,120.969842 C85.9731429,121.637717 87.5511703,121.12687 88.1892835,119.839644 L92.9822373,110.167247 C93.3557669,109.413782 94.0777889,108.891478 94.9121405,108.770842 L106.738549,107.059033 C108.164999,106.852807 109.140778,105.515709 108.896495,104.100434 L106.729076,91.5152662 C106.586295,90.6869932 106.861706,89.8418716 107.466661,89.2548693" id="Fill-15" fill="#0088FF"></path>
                        <path d="M98.5330097,79.7726593 C98.5330097,93.9988723 86.9542672,105.531345 72.6694649,105.531345 C58.3860159,105.531345 46.8065968,93.9988723 46.8065968,79.7726593 C46.8065968,65.5464463 58.3860159,54.013974 72.6694649,54.013974 C86.9542672,54.013974 98.5330097,65.5464463 98.5330097,79.7726593" id="Fill-16" fill="#003CFF"></path>
                        <path d="M73.0766934,66.6798122 L76.9168759,74.4287817 C76.9825143,74.562222 77.1110843,74.6545519 77.2586014,74.676118 L85.8450466,75.9188645 C86.2172228,75.9727797 86.3660934,76.4283636 86.0967731,76.6905265 L79.8834592,82.7216213 C79.7765431,82.8260821 79.7278219,82.975697 79.7528592,83.1219421 L81.2192337,91.6392039 C81.2835187,92.0085234 80.8944253,92.2902306 80.5614967,92.1156799 L72.8811317,88.0942761 C72.7491783,88.0255342 72.5908342,88.0255342 72.4588808,88.0942761 L64.7785157,92.1156799 C64.4455871,92.2902306 64.0564937,92.0085234 64.120102,91.6392039 L65.5871533,83.1219421 C65.6121906,82.975697 65.5627926,82.8260821 65.4558765,82.7216213 L59.2432394,76.6905265 C58.9732424,76.4283636 59.1221129,75.9727797 59.4949659,75.9188645 L68.0807343,74.676118 C68.2289282,74.6545519 68.3561448,74.562222 68.4224598,74.4287817 L72.2626424,66.6798122 C72.4291067,66.3435159 72.9102291,66.3435159 73.0766934,66.6798122" id="Fill-17" fill="#FFD525"></path>
                        <path d="M103.479909,79.7726593 C103.479909,96.7195706 89.6857028,110.457851 72.6698032,110.457851 C55.653227,110.457851 41.8590206,96.7195706 41.8590206,79.7726593 C41.8590206,62.8257479 55.653227,49.0874679 72.6698032,49.0874679 C89.6857028,49.0874679 103.479909,62.8257479 103.479909,79.7726593 Z" id="Stroke-18" stroke="#003CFF" stroke-linecap="round" stroke-linejoin="round" stroke-dasharray="83.41800000000001,11.917"></path>
                        <path d="M133.486656,51.7827587 L133.486656,52.0307689 C133.486656,56.0683473 130.200001,59.341677 126.145309,59.341677 C130.200001,59.341677 133.486656,62.6150067 133.486656,66.653259 L133.486656,66.4052488 C133.486656,62.3676704 136.77331,59.0943407 140.828002,59.0943407 C136.77331,59.0943407 133.486656,55.821011 133.486656,51.7827587" id="Fill-20" fill="#4057FF"></path>
                        <g id="Group-14" transform="translate(76.163320, 0.000000)">
                            <path d="M17.0023223,0 L17.0023223,0.580381649 C17.0023223,10.0386892 9.38945558,17.7061048 0,17.7061048 C9.38945558,17.7061048 17.0023223,25.3747959 17.0023223,34.8331034 L17.0023223,34.2527218 C17.0023223,24.7931387 24.6139228,17.1257231 34.0033784,17.1257231 C24.6139228,17.1257231 17.0023223,9.45830753 17.0023223,0" id="Fill-12" fill="#FFD525"></path>
                            <path d="M30.117278,29.0275862 L30.117278,29.2851758 C30.117278,33.489582 26.6371126,36.8976898 22.3450772,36.8976898 C26.6371126,36.8976898 30.117278,40.3045592 30.117278,44.5089655 L30.117278,44.251376 C30.117278,40.0469697 33.5974434,36.6388619 37.8894788,36.6388619 C33.5974434,36.6388619 30.117278,33.2319925 30.117278,29.0275862" id="Fill-14" fill="#FFD525"></path>
                            <path d="M17.4874517,17.9003448 C17.4874517,19.7703772 15.9649508,21.2868966 14.0866853,21.2868966 C12.209277,21.2868966 10.6867761,19.7703772 10.6867761,17.9003448 C10.6867761,16.0303125 12.209277,14.5137931 14.0866853,14.5137931 C15.9649508,14.5137931 17.4874517,16.0303125 17.4874517,17.9003448" id="Fill-34" fill="#FFE161"></path>
                        </g>
                        <path d="M59.6473938,48.3793103 C58.0377063,48.3793103 56.7328185,47.0797131 56.7328185,45.4765517 C56.7328185,43.8733904 58.0377063,42.5737931 59.6473938,42.5737931 C61.2570814,42.5737931 62.5619691,43.8733904 62.5619691,45.4765517 C62.5619691,47.0797131 61.2570814,48.3793103 59.6473938,48.3793103 Z" id="Fill-7" fill="#49A8FB"></path>
                        <g id="Group-23" transform="translate(116.967375, 19.351724)">
                            <path d="M12.4591762,-6.73940646e-05 L12.4591762,0.419123685 C12.4591762,7.24816421 6.90021591,12.7845866 0.0426987697,12.7845866 C6.90021591,12.7845866 12.4591762,18.3210089 12.4591762,25.1500495 L12.4591762,24.7315323 C12.4591762,17.9018179 18.0181364,12.3653955 24.8756536,12.3653955 C18.0181364,12.3653955 12.4591762,6.82897313 12.4591762,-6.73940646e-05" id="Fill-19" fill="#009CFF"></path>
                            <path d="M11.1725386,14.5137931 C9.83113232,14.5137931 8.74372587,13.4307954 8.74372587,12.0948276 C8.74372587,10.7588598 9.83113232,9.67586207 11.1725386,9.67586207 C12.5139449,9.67586207 13.6013514,10.7588598 13.6013514,12.0948276 C13.6013514,13.4307954 12.5139449,14.5137931 11.1725386,14.5137931 Z" id="Fill-7" fill="#49A8FB"></path>
                        </g>
                    </g>
                </g>
            </g>
        </g>
    </g>
</svg>