<?xml version="1.0" encoding="UTF-8"?>
<svg width="219px" height="219px" viewBox="0 0 219 219" version="1.1" xmlns="http://www.w3.org/2000/svg" xmlns:xlink="http://www.w3.org/1999/xlink">
    <!-- Generator: sketchtool 51.2 (57519) - http://www.bohemiancoding.com/sketch -->
    <title>FBB27498-DF8D-4AE2-B20B-2C98DE7751B7</title>
    <desc>Created with sketchtool.</desc>
    <defs></defs>
    <g id="Landing-page" stroke="none" stroke-width="1" fill="none" fill-rule="evenodd">
        <g id="Landing-Page" transform="translate(-176.000000, -2923.000000)">
            <g id="Group-37" transform="translate(176.000000, 2923.000000)">
                <rect id="Rectangle" fill="#FFFFFF" x="0" y="0" width="219" height="219"></rect>
                <g id="Group-32" transform="translate(37.000000, 58.000000)">
                    <g id="Group-26">
                        <path d="M110.676607,51.6814187 L104.88406,51.6814187 L104.88406,22.059005 C104.88406,15.7473781 101.198262,9.95885602 95.4161408,7.5041079 C83.4284639,2.41461234 71.8665391,11.1885602 71.8665391,22.6263815 L71.8665391,26.6853955 C71.8665391,27.0785979 71.5496868,27.396655 71.1592691,27.396655 L66.7829995,27.396655 C66.3914233,27.396655 66.0739917,27.0774329 66.0739917,26.6842305 L66.0739917,22.0799758 C66.0739917,13.2349603 71.3457891,5.14314584 79.5370305,1.92296369 C95.4873891,-4.34788668 110.676607,7.38935105 110.676607,22.6263815 L110.676607,51.6814187 Z" id="Fill-1" fill="#0065FF"></path>
                        <path d="M110.097352,77.3123909 C110.097352,91.551561 104.600225,103.139091 90.5318648,103.516565 C90.2961081,103.522973 84.267804,103.525885 84.0308888,103.525885 C69.6346706,103.525885 57.9644253,91.7898126 57.9644253,77.3123909 C57.9644253,62.8349692 69.6346706,51.0988966 84.0308888,51.0988966 C98.427107,51.0988966 110.097352,62.8349692 110.097352,77.3123909" id="Fill-3" fill="#E24082"></path>
                        <polygon id="Fill-5" fill="#E24082" points="57.9643673 77.3123327 110.097294 77.3123327 110.097294 38.2833522 57.9643673 38.2833522"></polygon>
                        <path d="M118.786173,77.3123909 C118.786173,91.7898126 107.115928,103.525885 92.71971,103.525885 C78.3234918,103.525885 66.6532464,91.7898126 66.6532464,77.3123909 C66.6532464,62.8349692 78.3234918,51.0988966 92.71971,51.0988966 C107.115928,51.0988966 118.786173,62.8349692 118.786173,77.3123909" id="Fill-7" fill="#FF5E99"></path>
                        <path d="M117.572229,77.3123909 L67.8669589,77.3123909 C67.1967612,77.3123909 66.6534202,76.7659852 66.6534202,76.0914246 L66.6534202,39.5043768 C66.6534202,38.8298162 67.1967612,38.2834104 67.8669589,38.2834104 L117.572229,38.2834104 C118.242427,38.2834104 118.786347,38.8298162 118.786347,39.5043768 L118.786347,76.0914246 C118.786347,76.7659852 118.242427,77.3123909 117.572229,77.3123909" id="Fill-8" fill="#FF5E99"></path>
                        <path d="M89.8234362,62.7493385 C89.8234362,61.140995 91.1198084,59.836728 92.71971,59.836728 C94.3196116,59.836728 95.6159837,61.140995 95.6159837,62.7493385 C95.6159837,64.357682 94.3196116,65.661949 92.71971,65.661949 C91.1198084,65.661949 89.8234362,64.357682 89.8234362,62.7493385" id="Fill-9" fill="#183959"></path>
                        <path d="M89.8234362,62.7493385 L95.6159837,62.7493385 L95.6159837,71.7720233 C95.6159837,72.9015336 94.7053952,73.8172583 93.5822203,73.8172583 L91.8879002,73.8172583 C90.7479268,73.8172583 89.8234362,72.8875531 89.8234362,71.7411496 L89.8234362,62.7493385 Z" id="Fill-10" fill="#183959"></path>
                        <path d="M145.762762,65.4435032 C145.762762,70.7922211 141.451369,75.1279331 136.132652,75.1279331 C130.813935,75.1279331 126.502542,70.7922211 126.502542,65.4435032 C126.502542,60.0947853 130.813935,55.7590733 136.132652,55.7590733 C141.451369,55.7590733 145.762762,60.0947853 145.762762,65.4435032 Z" id="Stroke-11" stroke="#0065FF" stroke-width="6"></path>
                        <path d="M93.8782195,65.4435032 L126.502426,65.4435032" id="Stroke-12" stroke="#0065FF" stroke-width="6"></path>
                        <path d="M39.0147435,27.1008503 L39.0147435,27.3152184 C39.0147435,30.8051083 36.2018824,33.6344181 32.7304087,33.6344181 C36.2018824,33.6344181 39.0147435,36.4637279 39.0147435,39.9536178 L39.0147435,39.7398322 C39.0147435,36.2499423 41.8281837,33.4206325 45.2990782,33.4206325 C41.8281837,33.4206325 39.0147435,30.5907401 39.0147435,27.1008503" id="Fill-32" fill="#FFD525"></path>
                        <path d="M85.5642588,88.468825 C85.5642588,90.9926004 83.5298443,93.0384903 81.0202247,93.0384903 C78.5106051,93.0384903 76.4761905,90.9926004 76.4761905,88.468825 C76.4761905,85.9450496 78.5106051,83.8991597 81.0202247,83.8991597 C83.5298443,83.8991597 85.5642588,85.9450496 85.5642588,88.468825" id="Fill-7" fill="#FF8DB7"></path>
                        <g id="Group-14" transform="translate(0.000000, 22.722689)">
                            <path d="M15.2088997,0 L15.2088997,0.524216131 C15.2088997,9.06721089 8.39904604,15.9926244 0,15.9926244 C8.39904604,15.9926244 15.2088997,22.9191901 15.2088997,31.4621849 L15.2088997,30.9379687 C15.2088997,22.3938219 22.0176206,15.4684083 30.4166667,15.4684083 C22.0176206,15.4684083 15.2088997,8.54299476 15.2088997,0" id="Fill-12" fill="#FFD525"></path>
                            <path d="M15.6428571,16.1680672 C15.6428571,17.8571301 14.2809512,19.2268908 12.6008071,19.2268908 C10.9214298,19.2268908 9.55952381,17.8571301 9.55952381,16.1680672 C9.55952381,14.4790043 10.9214298,13.1092437 12.6008071,13.1092437 C14.2809512,13.1092437 15.6428571,14.4790043 15.6428571,16.1680672" id="Fill-34" fill="#FFE161"></path>
                        </g>
                    </g>
                </g>
            </g>
        </g>
    </g>
</svg>